<svg xmlns="http://www.w3.org/2000/svg" xmlns:xlink="http://www.w3.org/1999/xlink" width="100" zoomAndPan="magnify" viewBox="0 0 75 74.999997" height="100" preserveAspectRatio="xMidYMid meet" version="1.0"><defs><clipPath id="461f2ab96f"><path d="M 0.855469 18 L 74.355469 18 L 74.355469 74.25 L 0.855469 74.25 Z M 0.855469 18 " clip-rule="nonzero"/></clipPath></defs><g clip-path="url(#461f2ab96f)"><path fill="#503047" d="M 48.710938 18 C 48.519531 18 48.316406 18.058594 48.152344 18.160156 L 28.058594 30.515625 C 27.621094 30.777344 27.429688 31.335938 27.621094 31.804688 C 27.78125 32.230469 27.871094 32.683594 27.871094 33.152344 C 27.871094 35.261719 26.15625 36.976562 24.058594 36.976562 C 22.988281 36.976562 21.964844 36.523438 21.230469 35.734375 C 20.878906 35.351562 20.320312 35.277344 19.882812 35.542969 L 1.371094 46.898438 C 1.34375 46.914062 1.328125 46.929688 1.296875 46.945312 C 1.285156 46.945312 1.285156 46.960938 1.269531 46.960938 C 1.253906 46.972656 1.238281 46.988281 1.226562 46.988281 C 1.210938 47.003906 1.210938 47.003906 1.195312 47.019531 C 1.179688 47.03125 1.167969 47.03125 1.167969 47.046875 C 1.152344 47.0625 1.152344 47.078125 1.136719 47.078125 C 1.121094 47.089844 1.121094 47.089844 1.109375 47.105469 C 1.09375 47.121094 1.09375 47.136719 1.078125 47.148438 C 1.0625 47.164062 1.0625 47.179688 1.050781 47.179688 C 1.035156 47.195312 1.035156 47.207031 1.019531 47.222656 C 1.003906 47.238281 1.003906 47.253906 0.992188 47.265625 C 0.992188 47.28125 0.976562 47.296875 0.976562 47.296875 C 0.960938 47.3125 0.960938 47.324219 0.945312 47.339844 C 0.945312 47.355469 0.933594 47.371094 0.933594 47.371094 C 0.933594 47.382812 0.917969 47.398438 0.917969 47.414062 C 0.917969 47.429688 0.902344 47.441406 0.902344 47.441406 C 0.902344 47.457031 0.886719 47.472656 0.886719 47.488281 C 0.886719 47.5 0.886719 47.515625 0.875 47.53125 C 0.875 47.546875 0.875 47.558594 0.859375 47.574219 C 0.859375 47.589844 0.859375 47.605469 0.859375 47.617188 C 0.859375 47.632812 0.859375 47.648438 0.859375 47.664062 C 0.859375 47.675781 0.859375 47.691406 0.859375 47.722656 C 0.859375 47.734375 0.859375 47.734375 0.859375 47.75 L 0.859375 55.09375 C 0.859375 55.621094 1.253906 56.074219 1.78125 56.148438 C 3.65625 56.414062 5.066406 58.039062 5.066406 59.929688 C 5.066406 61.820312 3.65625 63.445312 1.78125 63.710938 C 1.253906 63.785156 0.859375 64.238281 0.859375 64.765625 L 0.859375 71.582031 C 0.859375 72.386719 1.210938 73.148438 1.839844 73.648438 C 2.324219 74.042969 2.910156 74.25 3.527344 74.25 C 3.703125 74.25 3.890625 74.234375 4.066406 74.191406 L 46.6875 65.484375 C 47.214844 65.382812 47.566406 64.898438 47.539062 64.371094 C 47.539062 64.296875 47.539062 64.238281 47.539062 64.164062 C 47.539062 61.835938 49.429688 59.945312 51.757812 59.945312 C 53.519531 59.945312 55.117188 61.058594 55.714844 62.699219 C 55.890625 63.199219 56.417969 63.492188 56.933594 63.375 L 72 60.296875 C 73.230469 60.046875 74.140625 58.933594 74.140625 57.671875 L 74.140625 33.300781 C 74.140625 26.132812 54.894531 18 48.710938 18 Z M 20.292969 37.800781 C 21.347656 38.648438 22.667969 39.117188 24.042969 39.117188 C 27.328125 39.117188 29.996094 36.449219 29.996094 33.152344 C 29.996094 32.726562 29.949219 32.316406 29.863281 31.90625 L 49.003906 20.152344 C 55.144531 20.386719 70.195312 27.511719 71.851562 32.449219 L 7.660156 45.550781 Z M 72 57.789062 C 72 58.039062 71.824219 58.257812 71.574219 58.316406 L 57.328125 61.21875 C 56.230469 59.210938 54.089844 57.90625 51.746094 57.90625 C 48.445312 57.90625 45.722656 60.441406 45.414062 63.652344 L 3.628906 72.183594 C 3.421875 72.226562 3.261719 72.136719 3.1875 72.078125 C 3.117188 72.019531 3 71.890625 3 71.667969 L 3 65.703125 C 5.445312 64.941406 7.203125 62.640625 7.203125 60.015625 C 7.203125 57.378906 5.445312 55.078125 3 54.332031 L 3 48.71875 L 46.835938 39.761719 L 72 34.617188 Z M 49.824219 21.265625 C 47.171875 21.265625 45.015625 23.421875 45.015625 26.074219 C 45.015625 28.726562 47.171875 30.882812 49.824219 30.882812 C 52.476562 30.882812 54.632812 28.726562 54.632812 26.074219 C 54.632812 23.421875 52.476562 21.265625 49.824219 21.265625 Z M 49.824219 28.742188 C 48.359375 28.742188 47.15625 27.539062 47.15625 26.074219 C 47.15625 24.609375 48.359375 23.40625 49.824219 23.40625 C 51.289062 23.40625 52.492188 24.609375 52.492188 26.074219 C 52.492188 27.554688 51.304688 28.742188 49.824219 28.742188 Z M 38.804688 32.054688 C 37.101562 32.054688 35.710938 33.445312 35.710938 35.144531 C 35.710938 36.847656 37.101562 38.238281 38.804688 38.238281 C 40.503906 38.238281 41.894531 36.847656 41.894531 35.144531 C 41.894531 33.429688 40.519531 32.054688 38.804688 32.054688 Z M 38.804688 36.097656 C 38.277344 36.097656 37.851562 35.671875 37.851562 35.144531 C 37.851562 34.617188 38.277344 34.195312 38.804688 34.195312 C 39.332031 34.195312 39.753906 34.617188 39.753906 35.144531 C 39.753906 35.671875 39.332031 36.097656 38.804688 36.097656 Z M 25.597656 47.632812 C 23.0625 47.632812 20.996094 49.699219 20.996094 52.234375 C 20.996094 54.769531 23.0625 56.835938 25.597656 56.835938 C 28.132812 56.835938 30.199219 54.769531 30.199219 52.234375 C 30.199219 49.699219 28.132812 47.632812 25.597656 47.632812 Z M 25.597656 54.699219 C 24.234375 54.699219 23.136719 53.597656 23.136719 52.234375 C 23.136719 50.871094 24.234375 49.773438 25.597656 49.773438 C 26.960938 49.773438 28.058594 50.871094 28.058594 52.234375 C 28.058594 53.597656 26.945312 54.699219 25.597656 54.699219 Z M 38.804688 52.777344 C 36.824219 52.777344 35.226562 54.390625 35.226562 56.367188 C 35.226562 58.347656 36.839844 59.945312 38.804688 59.945312 C 40.78125 59.945312 42.378906 58.332031 42.378906 56.367188 C 42.394531 54.390625 40.78125 52.777344 38.804688 52.777344 Z M 38.804688 57.804688 C 38.011719 57.804688 37.351562 57.160156 37.351562 56.355469 C 37.351562 55.5625 37.996094 54.902344 38.804688 54.902344 C 39.59375 54.902344 40.253906 55.546875 40.253906 56.355469 C 40.253906 57.160156 39.609375 57.804688 38.804688 57.804688 Z M 18.871094 60.734375 C 16.746094 60.734375 15 62.464844 15 64.605469 C 15 66.746094 16.730469 68.472656 18.871094 68.472656 C 21.011719 68.472656 22.738281 66.746094 22.738281 64.605469 C 22.738281 62.464844 20.996094 60.734375 18.871094 60.734375 Z M 18.871094 66.335938 C 17.917969 66.335938 17.140625 65.558594 17.140625 64.605469 C 17.140625 63.652344 17.917969 62.875 18.871094 62.875 C 19.824219 62.875 20.601562 63.652344 20.601562 64.605469 C 20.601562 65.558594 19.824219 66.335938 18.871094 66.335938 Z M 63.117188 53.378906 C 66.253906 53.378906 68.820312 50.828125 68.820312 47.675781 C 68.820312 44.527344 66.269531 41.976562 63.117188 41.976562 C 59.964844 41.976562 57.417969 44.527344 57.417969 47.675781 C 57.417969 50.828125 59.980469 53.378906 63.117188 53.378906 Z M 63.117188 44.128906 C 65.082031 44.128906 66.679688 45.726562 66.679688 47.691406 C 66.679688 49.65625 65.082031 51.253906 63.117188 51.253906 C 61.152344 51.253906 59.554688 49.65625 59.554688 47.691406 C 59.554688 45.726562 61.152344 44.128906 63.117188 44.128906 Z M 63.117188 44.128906 " fill-opacity="1" fill-rule="nonzero"/></g></svg>