<svg xmlns="http://www.w3.org/2000/svg" xmlns:xlink="http://www.w3.org/1999/xlink" width="100" zoomAndPan="magnify" viewBox="0 0 75 74.999997" height="100" preserveAspectRatio="xMidYMid meet" version="1.0"><defs><clipPath id="e261ae8c83"><path d="M 0.878906 21.273438 L 37 21.273438 L 37 67 L 0.878906 67 Z M 0.878906 21.273438 " clip-rule="nonzero"/></clipPath><clipPath id="755e7c92af"><path d="M 14 49 L 72 49 L 72 73.773438 L 14 73.773438 Z M 14 49 " clip-rule="nonzero"/></clipPath></defs><path fill="#503047" d="M 28.234375 40.40625 C 28.34375 40.40625 28.507812 40.40625 28.621094 40.351562 C 29.171875 40.128906 29.445312 39.46875 29.226562 38.917969 C 27.628906 34.78125 25.585938 31.253906 23.546875 28.992188 C 23.160156 28.550781 22.445312 28.496094 22.003906 28.9375 C 21.5625 29.324219 21.507812 30.039062 21.949219 30.480469 C 23.765625 32.519531 25.699219 35.828125 27.1875 39.691406 C 27.351562 40.1875 27.792969 40.40625 28.234375 40.40625 Z M 28.234375 40.40625 " fill-opacity="1" fill-rule="nonzero"/><g clip-path="url(#e261ae8c83)"><path fill="#503047" d="M 12.1875 66.929688 C 12.460938 66.160156 12.902344 65.609375 13.566406 65.109375 C 7.5 62.960938 3.144531 57.226562 3.144531 50.441406 C 3.144531 41.839844 10.035156 23.476562 18.582031 23.476562 C 26.414062 23.476562 32.867188 38.972656 33.859375 48.070312 C 34.574219 47.960938 35.292969 47.851562 36.066406 47.742188 C 35.511719 43.273438 33.804688 37.152344 31.488281 32.464844 C 27.792969 25.242188 23.269531 21.273438 18.582031 21.273438 C 13.898438 21.273438 9.320312 25.242188 5.679688 32.464844 C 2.867188 38.089844 0.9375 45.644531 0.9375 50.441406 C 0.9375 57.941406 5.625 64.339844 12.1875 66.929688 Z M 12.1875 66.929688 " fill-opacity="1" fill-rule="nonzero"/></g><g clip-path="url(#755e7c92af)"><path fill="#503047" d="M 71.300781 58.4375 C 70.472656 56.453125 68.160156 56.453125 66.0625 56.453125 L 65.621094 56.453125 C 65.125 56.453125 64.078125 56.453125 63.304688 56.34375 C 63.636719 57.058594 63.855469 57.832031 64.023438 58.605469 C 64.519531 58.605469 65.070312 58.660156 65.621094 58.660156 C 65.789062 58.660156 65.953125 58.660156 66.117188 58.660156 C 68.765625 58.660156 70.804688 58.714844 67.992188 61.636719 C 63.472656 66.214844 74.058594 69.796875 63.636719 69.855469 C 54.921875 69.910156 56.632812 70.351562 45.550781 71.617188 C 43.34375 71.894531 41.746094 72.003906 40.585938 72.003906 C 33.363281 72.003906 44.886719 67.425781 32.976562 67.425781 C 30.164062 67.425781 26.027344 67.703125 20.015625 68.308594 C 18.472656 68.476562 17.535156 68.53125 16.984375 68.53125 C 12.40625 68.53125 37.609375 63.347656 28.566406 59.046875 C 20.402344 55.183594 32.148438 52.8125 36.449219 52.097656 C 37.441406 50.996094 38.65625 50 39.925781 49.230469 C 38.710938 49.449219 37.828125 49.617188 37.5 49.671875 C 36.890625 49.726562 34.246094 50.113281 31.488281 50.828125 C 26.304688 52.097656 23.988281 53.640625 23.601562 55.902344 C 23.160156 58.878906 26.523438 60.480469 27.628906 61.03125 C 27.738281 61.085938 27.847656 61.140625 27.902344 61.195312 C 27.460938 61.527344 26.578125 62.078125 24.925781 62.796875 C 22.941406 63.675781 20.625 64.449219 18.804688 65.054688 C 17.867188 65.386719 17.039062 65.664062 16.488281 65.882812 C 15.769531 66.160156 13.953125 66.875 14.226562 68.75 C 14.335938 69.355469 14.777344 70.679688 16.984375 70.679688 C 17.644531 70.679688 18.640625 70.625 20.292969 70.460938 C 25.808594 69.855469 30.054688 69.578125 32.976562 69.578125 C 34.464844 69.578125 35.457031 69.632812 36.066406 69.742188 C 35.789062 70.460938 35.566406 71.507812 36.230469 72.5 C 37.113281 73.933594 38.820312 74.101562 40.585938 74.101562 C 41.855469 74.101562 43.5625 73.988281 45.769531 73.714844 C 49.683594 73.273438 52.054688 72.886719 53.820312 72.609375 C 56.964844 72.113281 58.121094 71.949219 63.636719 71.894531 C 67.054688 71.894531 69.261719 71.507812 70.199219 69.855469 C 71.136719 68.253906 70.253906 66.765625 69.703125 65.71875 C 68.820312 64.117188 68.765625 63.789062 69.535156 62.960938 C 70.308594 62.355469 72.128906 60.480469 71.300781 58.4375 Z M 71.300781 58.4375 " fill-opacity="1" fill-rule="nonzero"/></g><path fill="#503047" d="M 61.101562 52.648438 C 61.871094 53.585938 62.535156 54.578125 63.03125 55.625 C 63.304688 54.855469 63.746094 53.308594 62.863281 51.988281 C 62.421875 51.324219 61.542969 50.609375 59.886719 50.554688 C 59.609375 50.554688 59.390625 50.554688 59.113281 50.609375 C 59.777344 51.269531 60.4375 51.933594 61.101562 52.648438 Z M 61.101562 52.648438 " fill-opacity="1" fill-rule="nonzero"/><path fill="#503047" d="M 48.472656 48.953125 C 44.171875 48.953125 40.253906 50.773438 37.609375 53.917969 C 35.734375 56.179688 34.742188 58.878906 34.742188 61.746094 C 34.742188 62.410156 35.015625 63.015625 35.511719 63.402344 C 38.160156 65.664062 42.957031 66.984375 48.472656 66.984375 C 53.929688 66.984375 58.785156 65.664062 61.429688 63.402344 C 61.925781 62.960938 62.203125 62.355469 62.203125 61.746094 C 62.203125 58.878906 61.210938 56.179688 59.335938 53.917969 C 56.742188 50.71875 52.773438 48.953125 48.472656 48.953125 Z M 59.996094 61.691406 C 57.902344 63.511719 53.546875 64.726562 48.472656 64.726562 C 43.453125 64.726562 39.097656 63.457031 36.945312 61.691406 C 36.945312 59.265625 37.828125 57.058594 39.316406 55.296875 C 41.414062 52.757812 44.722656 51.105469 48.472656 51.105469 C 52.222656 51.105469 55.53125 52.757812 57.625 55.296875 C 59.113281 57.117188 59.996094 59.320312 59.996094 61.691406 Z M 59.996094 61.691406 " fill-opacity="1" fill-rule="nonzero"/><path fill="#503047" d="M 48.472656 53.089844 C 47.867188 53.089844 47.367188 53.585938 47.367188 54.191406 C 47.367188 54.800781 47.867188 55.296875 48.472656 55.296875 C 50.734375 55.296875 52.773438 56.234375 54.152344 57.886719 C 54.371094 58.164062 54.703125 58.273438 54.980469 58.273438 C 55.199219 58.273438 55.476562 58.164062 55.695312 57.996094 C 56.191406 57.613281 56.246094 56.894531 55.859375 56.453125 C 54.097656 54.304688 51.394531 53.089844 48.472656 53.089844 Z M 48.472656 53.089844 " fill-opacity="1" fill-rule="nonzero"/></svg>