<svg xmlns="http://www.w3.org/2000/svg" xmlns:xlink="http://www.w3.org/1999/xlink" width="100" zoomAndPan="magnify" viewBox="0 0 75 74.999997" height="100" preserveAspectRatio="xMidYMid meet" version="1.0"><defs><clipPath id="9dcd47a88b"><path d="M 1.066406 28.707031 L 73.816406 28.707031 L 73.816406 74.457031 L 1.066406 74.457031 Z M 1.066406 28.707031 " clip-rule="nonzero"/></clipPath></defs><g clip-path="url(#9dcd47a88b)"><path fill="#503047" d="M 25.265625 66.5625 C 27.5625 68.445312 29.941406 70.183594 32.703125 71.511719 C 29.726562 71.980469 26.875 71.84375 24.867188 71.433594 C 24.585938 69.792969 24.679688 68.023438 25.265625 66.5625 Z M 30.410156 31.019531 C 33.332031 31.226562 36.578125 32.011719 40.203125 33.335938 C 35.628906 33.960938 32.085938 35.640625 28.925781 37.777344 C 29.019531 35.488281 29.335938 33.296875 30.410156 31.019531 Z M 29.671875 28.742188 C 29.3125 28.765625 29 28.96875 28.828125 29.28125 C 26.902344 32.796875 26.816406 36.136719 26.8125 39.300781 C 24.792969 40.859375 22.878906 42.558594 20.882812 44.222656 C 19.851562 45.082031 19.378906 45.191406 18.832031 45.136719 C 18.28125 45.078125 17.472656 44.6875 16.242188 44.164062 L 5.8125 39.703125 C 4.390625 39.09375 2.835938 39.234375 1.945312 40.269531 C 1.058594 41.304688 1.066406 42.886719 1.835938 44.476562 C 4.832031 50.664062 5.679688 55.019531 1.839844 62.605469 C 1.042969 64.191406 1.027344 65.792969 1.929688 66.824219 C 2.824219 67.863281 4.386719 68.011719 5.8125 67.402344 L 16.242188 62.9375 C 17.472656 62.410156 18.28125 62.023438 18.832031 61.96875 C 19.378906 61.910156 19.851562 62.023438 20.882812 62.886719 C 21.796875 63.648438 22.703125 64.417969 23.605469 65.183594 C 22.453125 67.382812 22.089844 70.097656 22.765625 72.628906 C 22.859375 72.988281 23.140625 73.265625 23.503906 73.363281 C 26.5625 74.175781 31.417969 74.28125 36.113281 72.851562 C 38.476562 73.585938 41.117188 74.03125 44.195312 74.03125 C 58.050781 74.03125 69.359375 65.648438 72.8125 57.933594 C 73.351562 56.683594 71.492188 55.851562 70.914062 57.085938 C 69.339844 60.597656 65.589844 64.539062 60.496094 67.488281 C 56.007812 67.078125 52.035156 63.78125 50.285156 58.84375 C 48.527344 53.898438 49.367188 48.199219 52.394531 44.210938 C 52.917969 43.539062 52.457031 42.5625 51.613281 42.535156 C 51.269531 42.53125 50.953125 42.6875 50.75 42.964844 C 47.261719 47.554688 46.335938 53.933594 48.328125 59.535156 C 49.96875 64.171875 53.414062 67.65625 57.597656 68.992188 C 53.644531 70.796875 49.078125 71.859375 44.195312 71.953125 C 33.722656 72.164062 28.253906 66.347656 22.214844 61.292969 C 20.957031 60.238281 19.761719 59.792969 18.621094 59.90625 C 17.484375 60.027344 16.578125 60.535156 15.425781 61.03125 L 4.996094 65.496094 C 4.125 65.867188 3.683594 65.6875 3.5 65.46875 C 3.308594 65.25 3.128906 64.667969 3.695312 63.542969 C 7.746094 55.53125 6.8125 50 3.699219 43.578125 C 3.148438 42.433594 3.335938 41.839844 3.515625 41.625 C 3.703125 41.410156 4.117188 41.230469 4.992188 41.605469 L 15.429688 46.074219 C 16.582031 46.5625 17.484375 47.082031 18.625 47.203125 C 19.761719 47.316406 20.957031 46.859375 22.214844 45.8125 C 28.789062 40.332031 34.652344 35.09375 43.894531 35.171875 C 52.453125 35.246094 58.636719 37.960938 63.453125 41.476562 C 68.128906 44.898438 70.914062 49.105469 71.480469 52.359375 L 68.433594 53.789062 L 67.109375 54.40625 C 65.757812 54.953125 66.699219 56.972656 67.984375 56.28125 L 69.3125 55.664062 L 73.222656 53.832031 C 73.617188 53.640625 73.851562 53.230469 73.808594 52.792969 C 73.417969 48.472656 69.957031 43.664062 64.679688 39.800781 C 59.613281 36.097656 52.789062 33.3125 45.152344 33.09375 C 39.417969 30.566406 34.34375 28.917969 29.78125 28.742188 C 29.742188 28.742188 29.710938 28.742188 29.671875 28.742188 Z M 29.671875 28.742188 " fill-opacity="1" fill-rule="evenodd"/></g><path fill="#503047" d="M 64.613281 48.136719 C 64.613281 49.167969 63.804688 50.007812 62.804688 50.007812 C 61.804688 50.007812 60.992188 49.167969 60.992188 48.136719 C 60.992188 47.105469 61.804688 46.269531 62.804688 46.269531 C 63.804688 46.269531 64.613281 47.105469 64.613281 48.136719 Z M 64.613281 48.136719 " fill-opacity="1" fill-rule="evenodd"/></svg>