<svg xmlns="http://www.w3.org/2000/svg" xmlns:xlink="http://www.w3.org/1999/xlink" width="100" zoomAndPan="magnify" viewBox="0 0 75 74.999997" height="100" preserveAspectRatio="xMidYMid meet" version="1.0"><defs><clipPath id="8bc739d5cd"><path d="M 8.617188 0 L 66.367188 0 L 66.367188 74 L 8.617188 74 Z M 8.617188 0 " clip-rule="nonzero"/></clipPath></defs><g clip-path="url(#8bc739d5cd)"><path fill="#503047" d="M 65.765625 69.730469 C 63.777344 67.324219 62.867188 64.242188 63.257812 61.261719 C 65.128906 47.386719 64.992188 33.535156 62.855469 20.089844 C 63.339844 19.824219 63.753906 19.453125 64.054688 18.96875 C 64.542969 18.195312 64.691406 17.28125 64.484375 16.402344 L 62.808594 9.4375 C 62.378906 7.660156 60.636719 6.585938 58.847656 6.964844 C 57.03125 7.359375 55.21875 7.695312 53.40625 7.984375 C 49.40625 4.261719 43.515625 0 37.625 0 C 32.035156 0 26.105469 4.273438 22.007812 7.992188 C 20.125 7.695312 18.25 7.359375 16.378906 6.953125 C 14.578125 6.574219 12.832031 7.660156 12.417969 9.425781 L 10.742188 16.390625 C 10.535156 17.28125 10.683594 18.195312 11.171875 18.957031 C 11.46875 19.441406 11.886719 19.8125 12.371094 20.078125 C 10.234375 33.535156 10.097656 47.375 11.96875 61.25 C 12.371094 64.230469 11.460938 67.324219 9.472656 69.71875 C 8.8125 70.503906 8.675781 71.554688 9.101562 72.464844 C 9.519531 73.367188 10.40625 73.921875 11.414062 73.921875 L 63.835938 73.921875 C 65.269531 73.921875 66.378906 72.800781 66.378906 71.378906 C 66.378906 70.78125 66.167969 70.203125 65.765625 69.730469 Z M 37.625 1.734375 C 42.476562 1.734375 47.480469 5.058594 51.1875 8.292969 C 42.222656 9.519531 33.210938 9.53125 24.246094 8.328125 C 28.023438 5.082031 33.039062 1.734375 37.625 1.734375 Z M 12.429688 16.796875 L 14.105469 9.832031 C 14.277344 9.101562 14.925781 8.605469 15.664062 8.605469 C 15.78125 8.605469 15.90625 8.617188 16.023438 8.640625 C 30.359375 11.726562 44.890625 11.726562 59.226562 8.640625 C 60.09375 8.445312 60.9375 8.976562 61.144531 9.820312 L 62.820312 16.785156 C 62.921875 17.210938 62.855469 17.652344 62.613281 18.019531 C 62.378906 18.378906 62.035156 18.632812 61.617188 18.726562 C 45.699219 22.179688 29.550781 22.179688 13.628906 18.726562 C 13.214844 18.632812 12.867188 18.390625 12.636719 18.019531 C 12.394531 17.664062 12.324219 17.222656 12.429688 16.796875 Z M 63.824219 72.199219 L 11.402344 72.199219 C 10.925781 72.199219 10.730469 71.878906 10.660156 71.738281 C 10.523438 71.4375 10.570312 71.101562 10.800781 70.824219 C 13.097656 68.054688 14.152344 64.484375 13.6875 61.019531 C 11.851562 47.398438 11.980469 33.800781 14.046875 20.585938 C 21.867188 22.226562 29.746094 23.058594 37.625 23.058594 C 45.503906 23.058594 53.382812 22.226562 61.203125 20.585938 C 63.269531 33.800781 63.398438 47.398438 61.5625 61.019531 C 61.097656 64.484375 62.148438 68.054688 64.4375 70.824219 C 64.574219 71 64.644531 71.183594 64.644531 71.390625 C 64.644531 71.785156 64.355469 72.199219 63.824219 72.199219 Z M 63.824219 72.199219 " fill-opacity="1" fill-rule="nonzero"/></g><path fill="#503047" d="M 47.6875 18.53125 C 47.710938 18.53125 47.746094 18.53125 47.765625 18.53125 C 51.082031 18.230469 54.445312 17.753906 57.78125 17.144531 C 58.257812 17.050781 58.570312 16.601562 58.476562 16.136719 C 58.382812 15.664062 57.933594 15.363281 57.472656 15.445312 C 54.191406 16.046875 50.875 16.507812 47.617188 16.808594 C 47.144531 16.855469 46.785156 17.269531 46.832031 17.753906 C 46.867188 18.195312 47.246094 18.53125 47.6875 18.53125 Z M 47.6875 18.53125 " fill-opacity="1" fill-rule="nonzero"/><path fill="#503047" d="M 18.296875 17.304688 C 21.695312 17.90625 25.285156 18.355469 28.960938 18.644531 C 28.984375 18.644531 29.007812 18.644531 29.03125 18.644531 C 29.480469 18.644531 29.863281 18.296875 29.894531 17.847656 C 29.929688 17.375 29.574219 16.957031 29.097656 16.914062 C 25.472656 16.625 21.949219 16.183594 18.597656 15.59375 C 18.136719 15.515625 17.675781 15.828125 17.59375 16.300781 C 17.511719 16.761719 17.824219 17.210938 18.296875 17.304688 Z M 18.296875 17.304688 " fill-opacity="1" fill-rule="nonzero"/><path fill="#503047" d="M 29.339844 14.625 C 32.378906 14.867188 35.082031 14.984375 37.625 14.984375 C 39.367188 14.984375 41.148438 14.9375 42.914062 14.855469 C 43.390625 14.832031 43.757812 14.429688 43.734375 13.945312 C 43.710938 13.46875 43.320312 13.101562 42.824219 13.125 C 38.503906 13.34375 34.425781 13.296875 29.285156 12.890625 C 29.042969 12.867188 28.796875 12.972656 28.625 13.132812 C 28.453125 13.296875 28.347656 13.550781 28.347656 13.792969 C 28.347656 14.3125 28.832031 14.695312 29.339844 14.625 Z M 29.339844 14.625 " fill-opacity="1" fill-rule="nonzero"/><path fill="#503047" d="M 36.214844 6.25 C 36.214844 6.492188 36.128906 6.699219 35.957031 6.871094 C 35.785156 7.042969 35.578125 7.128906 35.335938 7.128906 C 35.09375 7.128906 34.886719 7.042969 34.714844 6.871094 C 34.546875 6.699219 34.460938 6.492188 34.460938 6.25 C 34.460938 6.007812 34.546875 5.800781 34.714844 5.628906 C 34.886719 5.457031 35.09375 5.371094 35.335938 5.371094 C 35.578125 5.371094 35.785156 5.457031 35.957031 5.628906 C 36.128906 5.800781 36.214844 6.007812 36.214844 6.25 Z M 36.214844 6.25 " fill-opacity="1" fill-rule="nonzero"/><path fill="#503047" d="M 31.859375 7.082031 C 31.859375 7.324219 31.773438 7.53125 31.601562 7.703125 C 31.429688 7.875 31.222656 7.960938 30.980469 7.960938 C 30.738281 7.960938 30.53125 7.875 30.359375 7.703125 C 30.191406 7.53125 30.105469 7.324219 30.105469 7.082031 C 30.105469 6.839844 30.191406 6.632812 30.359375 6.460938 C 30.53125 6.289062 30.738281 6.203125 30.980469 6.203125 C 31.222656 6.203125 31.429688 6.289062 31.601562 6.460938 C 31.773438 6.632812 31.859375 6.839844 31.859375 7.082031 Z M 31.859375 7.082031 " fill-opacity="1" fill-rule="nonzero"/><path fill="#503047" d="M 40.269531 6.90625 C 40.269531 7.152344 40.183594 7.359375 40.011719 7.527344 C 39.839844 7.699219 39.632812 7.785156 39.390625 7.785156 C 39.148438 7.785156 38.941406 7.699219 38.769531 7.527344 C 38.601562 7.359375 38.515625 7.152344 38.515625 6.90625 C 38.515625 6.664062 38.601562 6.457031 38.769531 6.289062 C 38.941406 6.117188 39.148438 6.03125 39.390625 6.03125 C 39.632812 6.03125 39.839844 6.117188 40.011719 6.289062 C 40.183594 6.457031 40.269531 6.664062 40.269531 6.90625 Z M 40.269531 6.90625 " fill-opacity="1" fill-rule="nonzero"/><path fill="#503047" d="M 43.828125 6.25 C 43.828125 6.492188 43.742188 6.699219 43.570312 6.871094 C 43.398438 7.042969 43.191406 7.128906 42.949219 7.128906 C 42.707031 7.128906 42.5 7.042969 42.328125 6.871094 C 42.15625 6.699219 42.070312 6.492188 42.070312 6.25 C 42.070312 6.007812 42.15625 5.800781 42.328125 5.628906 C 42.5 5.457031 42.707031 5.371094 42.949219 5.371094 C 43.191406 5.371094 43.398438 5.457031 43.570312 5.628906 C 43.742188 5.800781 43.828125 6.007812 43.828125 6.25 Z M 43.828125 6.25 " fill-opacity="1" fill-rule="nonzero"/><path fill="#503047" d="M 38.953125 3.894531 C 38.953125 3.417969 38.558594 3.015625 38.074219 3.015625 C 37.589844 3.015625 37.195312 3.40625 37.195312 3.894531 C 37.195312 4.378906 37.589844 4.769531 38.074219 4.769531 C 38.558594 4.769531 38.953125 4.367188 38.953125 3.894531 Z M 38.953125 3.894531 " fill-opacity="1" fill-rule="nonzero"/><path fill="#503047" d="M 43.179688 42.671875 C 45.238281 40.617188 45.019531 37.199219 45.007812 37.058594 C 44.972656 36.632812 44.636719 36.285156 44.199219 36.25 C 44.058594 36.238281 40.640625 36.03125 38.582031 38.074219 C 38.539062 38.121094 38.515625 38.15625 38.46875 38.203125 L 38.46875 37.464844 C 39.160156 36.769531 40.847656 34.851562 40.847656 32.484375 C 40.847656 29.585938 38.28125 27.308594 38.167969 27.21875 C 37.84375 26.929688 37.359375 26.929688 37.035156 27.21875 C 36.929688 27.308594 34.355469 29.574219 34.355469 32.484375 C 34.355469 34.851562 36.042969 36.769531 36.734375 37.464844 L 36.734375 38.191406 C 36.699219 38.15625 36.664062 38.109375 36.632812 38.074219 C 34.574219 36.019531 31.167969 36.238281 31.015625 36.25 C 30.589844 36.285156 30.242188 36.621094 30.207031 37.058594 C 30.195312 37.210938 29.988281 40.617188 32.035156 42.671875 C 33.453125 44.09375 35.535156 44.429688 36.722656 44.5 L 36.722656 46.671875 C 36.6875 46.636719 36.652344 46.589844 36.621094 46.554688 C 34.5625 44.5 31.15625 44.707031 31.003906 44.730469 C 30.578125 44.765625 30.230469 45.097656 30.195312 45.539062 C 30.183594 45.6875 29.976562 49.097656 32.023438 51.152344 C 33.453125 52.574219 35.523438 52.910156 36.710938 52.976562 L 36.710938 55.148438 C 36.675781 55.113281 36.644531 55.070312 36.609375 55.035156 C 34.550781 52.976562 31.144531 53.199219 30.992188 53.210938 C 30.566406 53.242188 30.21875 53.578125 30.183594 54.019531 C 30.171875 54.167969 29.964844 57.574219 32.011719 59.632812 C 33.429688 61.054688 35.511719 61.386719 36.699219 61.457031 L 36.699219 64.726562 C 36.699219 65.199219 37.09375 65.59375 37.566406 65.59375 C 38.039062 65.59375 38.433594 65.199219 38.433594 64.726562 L 38.433594 61.457031 C 39.625 61.386719 41.703125 61.066406 43.136719 59.632812 C 45.191406 57.574219 44.972656 54.167969 44.960938 54.019531 C 44.925781 53.589844 44.589844 53.242188 44.152344 53.210938 C 44 53.199219 40.59375 52.988281 38.539062 55.035156 C 38.492188 55.082031 38.46875 55.113281 38.421875 55.160156 L 38.421875 52.976562 C 39.613281 52.910156 41.691406 52.585938 43.125 51.152344 C 45.179688 49.097656 44.960938 45.675781 44.949219 45.539062 C 44.914062 45.109375 44.578125 44.765625 44.140625 44.730469 C 43.988281 44.71875 40.582031 44.511719 38.527344 46.554688 C 38.480469 46.601562 38.457031 46.636719 38.410156 46.683594 L 38.410156 44.5 C 39.65625 44.441406 41.75 44.105469 43.179688 42.671875 Z M 33.28125 41.449219 C 32.300781 40.46875 32.035156 38.929688 31.964844 37.996094 C 32.898438 38.0625 34.4375 38.328125 35.417969 39.3125 C 36.398438 40.292969 36.664062 41.832031 36.734375 42.765625 C 35.789062 42.695312 34.261719 42.429688 33.28125 41.449219 Z M 33.28125 49.929688 C 32.300781 48.945312 32.035156 47.410156 31.964844 46.472656 C 32.898438 46.542969 34.4375 46.808594 35.417969 47.792969 C 36.398438 48.773438 36.664062 50.308594 36.734375 51.246094 C 35.789062 51.175781 34.261719 50.910156 33.28125 49.929688 Z M 33.28125 58.394531 C 32.300781 57.414062 32.035156 55.878906 31.964844 54.941406 C 32.898438 55.011719 34.4375 55.277344 35.417969 56.257812 C 36.398438 57.242188 36.664062 58.777344 36.734375 59.714844 C 35.789062 59.644531 34.261719 59.378906 33.28125 58.394531 Z M 39.808594 39.3125 C 40.789062 38.328125 42.328125 38.0625 43.261719 37.996094 C 43.191406 38.929688 42.925781 40.46875 41.945312 41.449219 C 40.964844 42.429688 39.425781 42.695312 38.492188 42.765625 C 38.570312 41.832031 38.824219 40.292969 39.808594 39.3125 Z M 37.613281 29.132812 C 38.226562 29.839844 39.125 31.109375 39.125 32.507812 C 39.125 33.90625 38.238281 35.164062 37.613281 35.882812 C 37 35.175781 36.101562 33.90625 36.101562 32.507812 C 36.101562 31.109375 36.988281 29.839844 37.613281 29.132812 Z M 39.808594 56.257812 C 40.789062 55.277344 42.328125 55.011719 43.261719 54.941406 C 43.191406 55.878906 42.925781 57.414062 41.945312 58.394531 C 40.964844 59.378906 39.425781 59.644531 38.492188 59.714844 C 38.570312 58.777344 38.824219 57.242188 39.808594 56.257812 Z M 39.808594 47.792969 C 40.789062 46.808594 42.328125 46.542969 43.261719 46.472656 C 43.191406 47.410156 42.925781 48.945312 41.945312 49.929688 C 40.964844 50.910156 39.425781 51.175781 38.492188 51.246094 C 38.570312 50.296875 38.824219 48.773438 39.808594 47.792969 Z M 39.808594 47.792969 " fill-opacity="1" fill-rule="nonzero"/></svg>