<svg xmlns="http://www.w3.org/2000/svg" xmlns:xlink="http://www.w3.org/1999/xlink" width="100" zoomAndPan="magnify" viewBox="0 0 75 74.999997" height="100" preserveAspectRatio="xMidYMid meet" version="1.0"><defs><clipPath id="d4b85a4d4a"><path d="M 0.921875 13 L 23 13 L 23 73.839844 L 0.921875 73.839844 Z M 0.921875 13 " clip-rule="nonzero"/></clipPath><clipPath id="c9a70c4737"><path d="M 19 13 L 41 13 L 41 73.839844 L 19 73.839844 Z M 19 13 " clip-rule="nonzero"/></clipPath><clipPath id="96dc077290"><path d="M 19 1.089844 L 29 1.089844 L 29 17 L 19 17 Z M 19 1.089844 " clip-rule="nonzero"/></clipPath><clipPath id="01a85430e2"><path d="M 37 28 L 73.671875 28 L 73.671875 73.839844 L 37 73.839844 Z M 37 28 " clip-rule="nonzero"/></clipPath></defs><g clip-path="url(#d4b85a4d4a)"><path fill="#503047" d="M 20.652344 74.179688 C 9.773438 74.179688 0.921875 64.816406 0.921875 53.304688 C 0.921875 48.039062 3.78125 41.980469 6.542969 36.121094 C 7.703125 33.660156 8.800781 31.335938 9.671875 29.109375 C 11.25 25.097656 11.777344 21.335938 11.847656 20.816406 C 11.9375 18.226562 13.871094 13.46875 20.652344 13.46875 C 21.492188 13.46875 22.171875 14.148438 22.171875 14.988281 C 22.171875 15.824219 21.492188 16.503906 20.652344 16.503906 C 15.03125 16.503906 14.882812 20.78125 14.878906 20.960938 C 14.878906 21.011719 14.875 21.058594 14.871094 21.109375 C 14.851562 21.285156 14.339844 25.535156 12.5 30.21875 C 11.589844 32.539062 10.421875 35.019531 9.289062 37.417969 C 6.667969 42.976562 3.960938 48.722656 3.960938 53.304688 C 3.960938 63.140625 11.449219 71.144531 20.65625 71.144531 C 21.492188 71.144531 22.171875 71.824219 22.171875 72.664062 C 22.171875 73.5 21.492188 74.179688 20.652344 74.179688 Z M 20.652344 74.179688 " fill-opacity="1" fill-rule="nonzero"/></g><g clip-path="url(#c9a70c4737)"><path fill="#503047" d="M 20.652344 74.179688 C 19.8125 74.179688 19.136719 73.5 19.136719 72.664062 C 19.136719 71.824219 19.8125 71.144531 20.652344 71.144531 C 29.859375 71.144531 37.347656 63.144531 37.347656 53.304688 C 37.347656 48.71875 34.636719 42.96875 32.011719 37.410156 C 30.878906 35.015625 29.710938 32.535156 28.796875 30.21875 C 26.960938 25.539062 26.449219 21.289062 26.425781 21.113281 C 26.421875 21.066406 26.417969 21.019531 26.417969 20.976562 C 26.394531 20.527344 26.0625 16.503906 20.652344 16.503906 C 19.8125 16.503906 19.136719 15.824219 19.136719 14.988281 C 19.136719 14.148438 19.8125 13.46875 20.652344 13.46875 C 27.382812 13.46875 29.339844 18.222656 29.445312 20.808594 C 29.511719 21.308594 30.042969 25.082031 31.621094 29.109375 C 32.496094 31.332031 33.59375 33.65625 34.753906 36.113281 C 37.519531 41.976562 40.382812 48.035156 40.382812 53.300781 C 40.382812 64.816406 31.53125 74.179688 20.652344 74.179688 Z M 20.652344 74.179688 " fill-opacity="1" fill-rule="nonzero"/></g><g clip-path="url(#96dc077290)"><path fill="#503047" d="M 20.652344 16.507812 C 19.8125 16.507812 19.136719 15.828125 19.136719 14.988281 C 19.136719 4.453125 25.859375 1.5625 26.144531 1.445312 C 26.921875 1.125 27.804688 1.496094 28.125 2.269531 C 28.445312 3.042969 28.078125 3.925781 27.308594 4.25 C 27.066406 4.355469 22.167969 6.609375 22.167969 14.992188 C 22.171875 15.828125 21.492188 16.507812 20.652344 16.507812 Z M 20.652344 16.507812 " fill-opacity="1" fill-rule="nonzero"/></g><g clip-path="url(#01a85430e2)"><path fill="#503047" d="M 40.382812 74.179688 C 39.621094 74.179688 38.964844 73.613281 38.875 72.839844 C 38.777344 72.007812 39.371094 71.253906 40.207031 71.15625 C 42.625 70.871094 43.734375 70.503906 44.621094 70.210938 C 45.570312 69.898438 46.390625 69.628906 47.972656 69.628906 C 49.46875 69.628906 50.347656 69.9375 51.195312 70.234375 C 52.355469 70.640625 53.792969 71.144531 58.019531 71.144531 C 63.917969 71.144531 70.742188 56.472656 70.742188 46.898438 C 70.742188 37.941406 66.375 31.6875 60.125 31.6875 C 57.996094 31.6875 56.570312 32.621094 54.917969 33.703125 C 53.105469 34.894531 51.050781 36.238281 47.972656 36.238281 C 44.816406 36.238281 43.128906 34.800781 41.640625 33.535156 C 40.644531 32.6875 39.789062 31.960938 38.503906 31.640625 C 37.691406 31.441406 37.191406 30.617188 37.394531 29.804688 C 37.59375 28.992188 38.417969 28.492188 39.230469 28.695312 C 41.210938 29.183594 42.484375 30.269531 43.605469 31.226562 C 44.90625 32.332031 45.933594 33.207031 47.972656 33.207031 C 50.144531 33.207031 51.585938 32.261719 53.253906 31.167969 C 55.050781 29.988281 57.089844 28.652344 60.125 28.652344 C 68.035156 28.652344 73.777344 36.324219 73.777344 46.898438 C 73.777344 57.179688 66.410156 74.183594 58.019531 74.183594 C 53.277344 74.183594 51.492188 73.558594 50.191406 73.101562 C 49.417969 72.828125 48.949219 72.664062 47.972656 72.664062 C 46.875 72.664062 46.414062 72.820312 45.574219 73.09375 C 44.609375 73.414062 43.289062 73.851562 40.5625 74.171875 C 40.5 74.179688 40.441406 74.179688 40.382812 74.179688 Z M 40.382812 74.179688 " fill-opacity="1" fill-rule="nonzero"/></g><path fill="#503047" d="M 47.972656 36.238281 C 47.132812 36.238281 46.453125 35.558594 46.453125 34.722656 C 46.453125 25.328125 53.238281 22.773438 53.527344 22.667969 C 54.316406 22.382812 55.1875 22.792969 55.46875 23.582031 C 55.753906 24.367188 55.347656 25.230469 54.566406 25.519531 C 54.339844 25.605469 49.488281 27.542969 49.488281 34.722656 C 49.488281 35.558594 48.808594 36.238281 47.972656 36.238281 Z M 47.972656 36.238281 " fill-opacity="1" fill-rule="nonzero"/></svg>