<svg xmlns="http://www.w3.org/2000/svg" xmlns:xlink="http://www.w3.org/1999/xlink" width="100" zoomAndPan="magnify" viewBox="0 0 75 74.999997" height="100" preserveAspectRatio="xMidYMid meet" version="1.0"><defs><clipPath id="26bc5e2f95"><path d="M 27 65 L 54 65 L 54 73.695312 L 27 73.695312 Z M 27 65 " clip-rule="nonzero"/></clipPath><clipPath id="cf5a474ced"><path d="M 10 26 L 69.398438 26 L 69.398438 35 L 10 35 Z M 10 26 " clip-rule="nonzero"/></clipPath></defs><path fill="#503047" d="M 28.09375 67.371094 C 27.980469 67.371094 27.867188 67.347656 27.757812 67.296875 C 19.722656 63.589844 14.53125 55.507812 14.53125 46.707031 L 14.53125 34.066406 C 14.53125 33.628906 14.886719 33.269531 15.328125 33.269531 C 15.769531 33.269531 16.125 33.628906 16.125 34.066406 L 16.125 46.707031 C 16.125 54.886719 20.953125 62.402344 28.425781 65.851562 C 28.828125 66.035156 29.003906 66.507812 28.816406 66.90625 C 28.683594 67.199219 28.394531 67.371094 28.09375 67.371094 Z M 52.265625 67.371094 C 51.964844 67.371094 51.675781 67.199219 51.542969 66.90625 C 51.359375 66.507812 51.53125 66.035156 51.933594 65.851562 C 59.40625 62.402344 64.234375 54.886719 64.234375 46.707031 L 64.234375 34.066406 C 64.234375 33.628906 64.589844 33.269531 65.03125 33.269531 C 65.472656 33.269531 65.828125 33.628906 65.828125 34.066406 L 65.828125 46.707031 C 65.828125 55.507812 60.636719 63.589844 52.601562 67.296875 C 52.492188 67.347656 52.378906 67.371094 52.265625 67.371094 Z M 52.265625 67.371094 " fill-opacity="1" fill-rule="evenodd"/><g clip-path="url(#26bc5e2f95)"><path fill="#503047" d="M 28.765625 72.46875 L 51.59375 72.46875 L 51.59375 67.371094 L 28.765625 67.371094 Z M 52.394531 74.066406 L 27.96875 74.066406 C 27.527344 74.066406 27.167969 73.707031 27.167969 73.265625 L 27.167969 66.574219 C 27.167969 66.132812 27.527344 65.777344 27.96875 65.777344 L 52.394531 65.777344 C 52.832031 65.777344 53.191406 66.132812 53.191406 66.574219 L 53.191406 73.265625 C 53.191406 73.707031 52.832031 74.066406 52.394531 74.066406 Z M 52.394531 74.066406 " fill-opacity="1" fill-rule="evenodd"/></g><g clip-path="url(#cf5a474ced)"><path fill="#503047" d="M 13.078125 28.203125 C 12.796875 28.203125 12.558594 28.441406 12.558594 28.722656 L 12.558594 32.753906 C 12.558594 33.035156 12.796875 33.269531 13.078125 33.269531 L 67.28125 33.269531 C 67.5625 33.269531 67.800781 33.035156 67.800781 32.753906 L 67.800781 28.722656 C 67.800781 28.441406 67.5625 28.203125 67.28125 28.203125 Z M 67.28125 34.867188 L 13.078125 34.867188 C 11.914062 34.867188 10.964844 33.917969 10.964844 32.753906 L 10.964844 28.722656 C 10.964844 27.558594 11.914062 26.609375 13.078125 26.609375 L 67.28125 26.609375 C 68.449219 26.609375 69.394531 27.558594 69.394531 28.722656 L 69.394531 32.753906 C 69.394531 33.917969 68.449219 34.867188 67.28125 34.867188 Z M 67.28125 34.867188 " fill-opacity="1" fill-rule="evenodd"/></g><path fill="#503047" d="M 62.558594 28.203125 C 62.308594 28.203125 62.0625 28.085938 61.910156 27.867188 C 61.65625 27.507812 61.738281 27.007812 62.101562 26.753906 C 65.003906 24.703125 66.589844 21.222656 66.820312 16.414062 L 66.820312 16.394531 C 66.929688 14.101562 67.003906 12.585938 66.59375 12.175781 C 66.179688 11.761719 64.660156 11.835938 62.363281 11.945312 C 53.347656 12.371094 49.191406 17.417969 49.648438 27.371094 C 49.671875 27.808594 49.328125 28.183594 48.890625 28.203125 C 48.445312 28.222656 48.078125 27.882812 48.058594 27.445312 C 47.808594 22.066406 48.882812 17.894531 51.246094 15.039062 C 53.632812 12.164062 57.347656 10.585938 62.289062 10.351562 C 65.300781 10.210938 66.808594 10.136719 67.71875 11.046875 C 68.628906 11.957031 68.558594 13.464844 68.414062 16.46875 L 68.414062 16.488281 C 68.160156 21.816406 66.34375 25.707031 63.019531 28.058594 C 62.882812 28.15625 62.71875 28.203125 62.558594 28.203125 Z M 62.558594 28.203125 " fill-opacity="1" fill-rule="evenodd"/><path fill="#503047" d="M 51.359375 28.203125 C 51.15625 28.203125 50.949219 28.125 50.792969 27.972656 C 50.484375 27.660156 50.484375 27.15625 50.792969 26.84375 L 60.425781 17.214844 C 60.734375 16.902344 61.238281 16.902344 61.550781 17.214844 C 61.863281 17.523438 61.863281 18.03125 61.550781 18.339844 L 51.921875 27.972656 C 51.765625 28.125 51.5625 28.203125 51.359375 28.203125 Z M 51.359375 28.203125 " fill-opacity="1" fill-rule="evenodd"/><path fill="#503047" d="M 62.59375 22.023438 C 62.566406 22.023438 62.539062 22.023438 62.511719 22.019531 L 57.929688 21.546875 C 57.554688 21.507812 57.257812 21.210938 57.21875 20.835938 L 56.746094 16.253906 C 56.699219 15.816406 57.019531 15.425781 57.457031 15.378906 C 57.894531 15.332031 58.285156 15.652344 58.332031 16.089844 L 58.738281 20.027344 L 62.675781 20.433594 C 63.113281 20.480469 63.429688 20.871094 63.386719 21.308594 C 63.34375 21.71875 62.996094 22.023438 62.59375 22.023438 Z M 62.59375 22.023438 " fill-opacity="1" fill-rule="evenodd"/><path fill="#503047" d="M 58.75 25.867188 C 58.722656 25.867188 58.695312 25.867188 58.667969 25.863281 L 54.085938 25.390625 C 53.707031 25.355469 53.414062 25.058594 53.371094 24.679688 L 52.902344 20.097656 C 52.855469 19.660156 53.175781 19.269531 53.613281 19.222656 C 54.050781 19.179688 54.441406 19.496094 54.488281 19.933594 L 54.894531 23.871094 L 58.832031 24.277344 C 59.269531 24.324219 59.585938 24.714844 59.542969 25.152344 C 59.5 25.5625 59.152344 25.867188 58.75 25.867188 Z M 58.75 25.867188 " fill-opacity="1" fill-rule="evenodd"/><path fill="#503047" d="M 38.523438 28.203125 C 38.371094 28.203125 38.21875 28.160156 38.082031 28.070312 C 34.558594 25.746094 32.640625 21.777344 32.378906 16.28125 C 32.238281 13.269531 32.167969 11.757812 33.078125 10.847656 C 33.988281 9.9375 35.492188 10.011719 38.496094 10.152344 L 38.515625 10.15625 C 44.773438 10.453125 49.027344 12.894531 51.164062 17.402344 C 51.355469 17.800781 51.183594 18.277344 50.785156 18.464844 C 50.390625 18.652344 49.914062 18.484375 49.726562 18.085938 C 47.832031 14.09375 44.140625 12.019531 38.441406 11.746094 L 38.421875 11.746094 C 36.128906 11.636719 34.613281 11.566406 34.203125 11.976562 C 33.792969 12.386719 33.863281 13.90625 33.972656 16.203125 C 34.207031 21.164062 35.886719 24.710938 38.960938 26.742188 C 39.328125 26.984375 39.429688 27.480469 39.1875 27.847656 C 39.035156 28.078125 38.78125 28.203125 38.523438 28.203125 Z M 38.523438 28.203125 " fill-opacity="1" fill-rule="evenodd"/><path fill="#503047" d="M 48.84375 27.417969 C 48.640625 27.417969 48.4375 27.339844 48.28125 27.183594 L 39.242188 18.144531 C 38.929688 17.832031 38.929688 17.328125 39.242188 17.015625 C 39.554688 16.707031 40.058594 16.707031 40.371094 17.015625 L 49.410156 26.054688 C 49.71875 26.367188 49.71875 26.871094 49.410156 27.183594 C 49.253906 27.339844 49.046875 27.417969 48.84375 27.417969 Z M 48.84375 27.417969 " fill-opacity="1" fill-rule="evenodd"/><path fill="#503047" d="M 37.457031 21.082031 C 37.050781 21.082031 36.703125 20.777344 36.664062 20.367188 C 36.617188 19.929688 36.9375 19.539062 37.375 19.492188 L 41.3125 19.085938 L 41.71875 15.148438 C 41.761719 14.710938 42.152344 14.390625 42.589844 14.4375 C 43.03125 14.480469 43.347656 14.875 43.304688 15.3125 L 42.832031 19.894531 C 42.792969 20.269531 42.496094 20.566406 42.121094 20.605469 L 37.535156 21.078125 C 37.511719 21.082031 37.480469 21.082031 37.457031 21.082031 Z M 37.457031 21.082031 " fill-opacity="1" fill-rule="evenodd"/><path fill="#503047" d="M 40.820312 24.445312 C 40.414062 24.445312 40.070312 24.140625 40.027344 23.730469 C 39.984375 23.292969 40.300781 22.902344 40.738281 22.855469 L 44.675781 22.449219 L 45.082031 18.511719 C 45.125 18.074219 45.515625 17.757812 45.957031 17.800781 C 46.394531 17.847656 46.714844 18.238281 46.667969 18.675781 L 46.195312 23.257812 C 46.15625 23.632812 45.859375 23.929688 45.484375 23.96875 L 40.902344 24.441406 C 40.875 24.445312 40.847656 24.445312 40.820312 24.445312 Z M 40.820312 24.445312 " fill-opacity="1" fill-rule="evenodd"/><path fill="#503047" d="M 31.859375 28.203125 C 31.59375 28.203125 31.339844 28.078125 31.1875 27.839844 L 17.421875 6.6875 C 17.179688 6.316406 17.285156 5.824219 17.65625 5.582031 C 18.027344 5.34375 18.519531 5.449219 18.757812 5.816406 L 32.523438 26.972656 C 32.765625 27.339844 32.660156 27.835938 32.292969 28.074219 C 32.15625 28.164062 32.003906 28.203125 31.859375 28.203125 Z M 17.984375 28.203125 C 17.695312 28.203125 17.414062 28.042969 17.273438 27.769531 L 8.984375 11.460938 C 8.785156 11.066406 8.941406 10.589844 9.335938 10.390625 C 9.726562 10.1875 10.207031 10.34375 10.40625 10.738281 L 18.695312 27.046875 C 18.894531 27.4375 18.738281 27.917969 18.347656 28.117188 C 18.230469 28.175781 18.105469 28.203125 17.984375 28.203125 Z M 17.984375 28.203125 " fill-opacity="1" fill-rule="evenodd"/><path fill="#503047" d="M 17.414062 2.617188 C 17.296875 2.617188 17.179688 2.648438 17.078125 2.707031 L 7.132812 8.449219 C 6.808594 8.636719 6.695312 9.054688 6.882812 9.375 L 7.59375 10.609375 C 7.78125 10.933594 8.195312 11.042969 8.519531 10.855469 L 18.46875 5.113281 C 18.625 5.023438 18.734375 4.878906 18.78125 4.703125 C 18.828125 4.527344 18.804688 4.34375 18.714844 4.1875 L 18.003906 2.957031 C 17.914062 2.800781 17.769531 2.6875 17.589844 2.640625 C 17.535156 2.625 17.472656 2.617188 17.414062 2.617188 Z M 8.1875 12.542969 C 7.398438 12.542969 6.632812 12.132812 6.210938 11.40625 L 5.503906 10.175781 C 4.875 9.089844 5.25 7.695312 6.335938 7.070312 L 16.28125 1.328125 C 16.804688 1.023438 17.417969 0.945312 18.003906 1.101562 C 18.589844 1.257812 19.082031 1.632812 19.386719 2.160156 L 20.097656 3.390625 C 20.398438 3.914062 20.480469 4.527344 20.324219 5.113281 C 20.164062 5.703125 19.789062 6.191406 19.265625 6.496094 L 18.867188 5.804688 L 19.265625 6.496094 L 9.316406 12.238281 C 8.960938 12.445312 8.570312 12.542969 8.1875 12.542969 Z M 8.1875 12.542969 " fill-opacity="1" fill-rule="evenodd"/><path fill="#503047" d="M 65.03125 42.816406 L 15.328125 42.816406 C 14.886719 42.816406 14.53125 42.460938 14.53125 42.019531 C 14.53125 41.578125 14.886719 41.222656 15.328125 41.222656 L 65.03125 41.222656 C 65.472656 41.222656 65.828125 41.578125 65.828125 42.019531 C 65.828125 42.460938 65.472656 42.816406 65.03125 42.816406 Z M 65.03125 42.816406 " fill-opacity="1" fill-rule="evenodd"/><path fill="#503047" d="M 48.226562 52.519531 L 32.136719 52.519531 C 31.695312 52.519531 31.335938 52.160156 31.335938 51.71875 C 31.339844 51.28125 31.695312 50.921875 32.136719 50.921875 L 48.226562 50.921875 C 48.664062 50.921875 49.023438 51.28125 49.023438 51.71875 C 49.023438 52.160156 48.664062 52.519531 48.226562 52.519531 Z M 48.226562 52.519531 " fill-opacity="1" fill-rule="evenodd"/><path fill="#503047" d="M 44.328125 57.671875 L 36.03125 57.671875 C 35.59375 57.671875 35.234375 57.3125 35.234375 56.875 C 35.234375 56.433594 35.59375 56.078125 36.03125 56.078125 L 44.328125 56.078125 C 44.769531 56.078125 45.125 56.433594 45.125 56.875 C 45.125 57.3125 44.769531 57.671875 44.328125 57.671875 Z M 44.328125 57.671875 " fill-opacity="1" fill-rule="evenodd"/></svg>