<svg xmlns="http://www.w3.org/2000/svg" xmlns:xlink="http://www.w3.org/1999/xlink" width="100" zoomAndPan="magnify" viewBox="0 0 75 74.999997" height="100" preserveAspectRatio="xMidYMid meet" version="1.0"><defs><clipPath id="a35cbe46e5"><path d="M 5.734375 0 L 69.484375 0 L 69.484375 74.25 L 5.734375 74.25 Z M 5.734375 0 " clip-rule="nonzero"/></clipPath></defs><g clip-path="url(#a35cbe46e5)"><path fill="#503047" d="M 68.867188 23.421875 L 59.054688 17.753906 L 59.054688 6.421875 C 59.054688 6.214844 58.945312 6.019531 58.761719 5.914062 L 48.652344 0.078125 C 48.472656 -0.0273438 48.246094 -0.0273438 48.066406 0.078125 L 37.957031 5.914062 C 37.777344 6.019531 37.664062 6.214844 37.664062 6.421875 L 37.664062 17.753906 L 28.144531 23.25 L 18.332031 17.585938 C 18.148438 17.480469 17.925781 17.480469 17.742188 17.585938 L 7.636719 23.421875 C 7.453125 23.527344 7.339844 23.71875 7.339844 23.929688 L 7.339844 35.519531 C 7.140625 36.21875 5.835938 40.945312 5.835938 44.238281 C 5.835938 46.265625 7.417969 47.917969 9.367188 47.917969 C 11.316406 47.917969 12.902344 46.265625 12.902344 44.238281 C 12.902344 43.382812 12.609375 41.015625 12.136719 38.710938 L 17.449219 41.777344 L 17.449219 53.109375 C 17.449219 53.320312 17.558594 53.511719 17.742188 53.617188 L 20.191406 55.03125 C 19.621094 55.648438 19.261719 56.515625 19.210938 57.507812 C 19.140625 58.828125 19.621094 60.039062 20.4375 60.597656 C 21.953125 61.632812 23.339844 61.046875 24.257812 60.664062 C 25.035156 60.335938 25.234375 60.300781 25.363281 60.4375 C 25.523438 60.746094 25.421875 62.273438 25.335938 63.5 C 25.121094 66.664062 24.828125 70.996094 26.699219 73 C 27.375 73.722656 28.265625 74.085938 29.347656 74.085938 C 29.351562 74.085938 29.351562 74.085938 29.351562 74.085938 C 30.792969 74.085938 31.933594 73.585938 32.75 72.597656 C 34.945312 69.941406 34.257812 64.476562 33.308594 59.355469 C 34.847656 59.589844 35.890625 59.136719 36.523438 58.664062 C 37.445312 57.976562 37.996094 56.875 37.996094 55.71875 C 37.996094 55.164062 37.875 54.628906 37.652344 54.132812 L 38.25 53.789062 L 45.574219 58.015625 C 44.996094 60.253906 44.585938 62.773438 44.585938 64.15625 C 44.585938 67.304688 46.761719 69.867188 49.433594 69.867188 C 52.109375 69.867188 54.285156 67.304688 54.285156 64.15625 C 54.285156 62.691406 53.804688 59.664062 53 56.945312 L 58.761719 53.617188 C 58.941406 53.511719 59.054688 53.316406 59.054688 53.109375 L 59.054688 41.777344 L 68.867188 36.113281 C 69.050781 36.007812 69.164062 35.8125 69.164062 35.601562 L 69.164062 23.929688 C 69.164062 23.71875 69.050781 23.527344 68.867188 23.421875 Z M 38.25 18.773438 L 47.769531 24.269531 L 47.769531 35.261719 L 38.253906 40.757812 L 28.730469 35.261719 L 28.730469 24.269531 Z M 48.359375 1.265625 L 57.878906 6.761719 L 57.878906 17.753906 L 48.359375 23.25 L 38.839844 17.753906 L 38.839844 6.761719 Z M 11.5625 37.019531 C 11.359375 36.902344 11.105469 36.917969 10.914062 37.058594 C 10.726562 37.199219 10.640625 37.441406 10.695312 37.667969 C 11.316406 40.199219 11.726562 43.296875 11.726562 44.238281 C 11.726562 45.617188 10.667969 46.738281 9.367188 46.738281 C 8.066406 46.738281 7.011719 45.617188 7.011719 44.238281 C 7.011719 40.917969 8.476562 35.816406 8.492188 35.765625 C 8.507812 35.714844 8.515625 35.65625 8.515625 35.601562 L 8.515625 24.269531 L 18.035156 18.773438 L 27.554688 24.269531 L 27.554688 35.261719 L 18.035156 40.757812 Z M 35.820312 57.71875 C 35.054688 58.292969 33.984375 58.394531 32.734375 58.019531 C 32.539062 57.960938 32.324219 58.011719 32.171875 58.148438 C 32.019531 58.285156 31.949219 58.492188 31.988281 58.695312 C 32.691406 62.378906 34.007812 69.230469 31.84375 71.847656 C 31.253906 72.5625 30.4375 72.910156 29.351562 72.910156 C 29.351562 72.910156 29.351562 72.910156 29.347656 72.910156 C 28.59375 72.910156 28.007812 72.675781 27.558594 72.195312 C 26.035156 70.566406 26.308594 66.527344 26.511719 63.578125 C 26.667969 61.246094 26.71875 60.195312 26.257812 59.679688 C 25.519531 58.855469 24.566406 59.257812 23.800781 59.578125 C 22.921875 59.949219 22.085938 60.300781 21.097656 59.625 C 20.628906 59.304688 20.335938 58.460938 20.382812 57.570312 C 20.433594 56.605469 20.855469 55.820312 21.507812 55.472656 C 21.507812 55.472656 21.511719 55.46875 21.511719 55.46875 C 21.570312 55.4375 21.625 55.390625 21.671875 55.335938 C 21.679688 55.324219 21.691406 55.3125 21.699219 55.296875 C 21.714844 55.28125 21.726562 55.265625 21.738281 55.25 C 21.75 55.226562 21.75 55.207031 21.761719 55.183594 C 21.777344 55.148438 21.789062 55.113281 21.796875 55.074219 C 21.804688 55.035156 21.808594 55 21.808594 54.964844 C 21.808594 54.925781 21.808594 54.890625 21.800781 54.851562 C 21.792969 54.8125 21.78125 54.777344 21.769531 54.738281 C 21.757812 54.71875 21.757812 54.695312 21.75 54.675781 C 21.742188 54.660156 21.726562 54.652344 21.71875 54.640625 C 21.699219 54.609375 21.675781 54.582031 21.648438 54.554688 C 21.617188 54.523438 21.589844 54.496094 21.554688 54.472656 C 21.542969 54.464844 21.535156 54.453125 21.523438 54.445312 L 18.621094 52.769531 L 18.621094 41.777344 L 28.140625 36.28125 L 37.660156 41.777344 L 37.660156 52.769531 L 36.71875 53.316406 C 36.648438 53.332031 36.582031 53.355469 36.519531 53.398438 C 36.265625 53.570312 36.195312 53.902344 36.339844 54.164062 C 36.34375 54.175781 36.34375 54.191406 36.351562 54.207031 C 36.355469 54.207031 36.359375 54.210938 36.359375 54.210938 C 36.359375 54.214844 36.359375 54.214844 36.359375 54.214844 C 36.660156 54.660156 36.820312 55.179688 36.820312 55.71875 C 36.820312 56.503906 36.445312 57.253906 35.820312 57.71875 Z M 52.003906 56.160156 C 51.765625 56.296875 51.65625 56.585938 51.738281 56.847656 C 52.585938 59.53125 53.109375 62.730469 53.109375 64.15625 C 53.109375 66.65625 51.460938 68.691406 49.433594 68.691406 C 47.410156 68.691406 45.761719 66.65625 45.761719 64.15625 C 45.761719 62.96875 46.128906 60.4375 46.828125 57.890625 C 46.898438 57.632812 46.785156 57.359375 46.554688 57.222656 L 38.839844 52.769531 L 38.839844 41.777344 L 48.359375 36.28125 L 57.878906 41.777344 L 57.878906 52.769531 Z M 67.988281 35.261719 L 58.46875 40.757812 L 48.949219 35.261719 L 48.949219 24.269531 L 58.46875 18.773438 L 67.988281 24.269531 Z M 67.988281 35.261719 " fill-opacity="1" fill-rule="nonzero"/></g><path fill="#503047" d="M 21.839844 62.695312 C 20.804688 62.695312 19.960938 63.539062 19.960938 64.574219 C 19.960938 65.609375 20.804688 66.453125 21.839844 66.453125 C 22.875 66.453125 23.71875 65.609375 23.71875 64.574219 C 23.71875 63.539062 22.875 62.695312 21.839844 62.695312 Z M 21.839844 65.277344 C 21.453125 65.277344 21.136719 64.960938 21.136719 64.574219 C 21.136719 64.183594 21.453125 63.871094 21.839844 63.871094 C 22.230469 63.871094 22.542969 64.183594 22.542969 64.574219 C 22.542969 64.960938 22.230469 65.277344 21.839844 65.277344 Z M 21.839844 65.277344 " fill-opacity="1" fill-rule="nonzero"/><path fill="#503047" d="M 30.386719 66.019531 C 29.375 66.019531 28.582031 67.113281 28.582031 68.511719 C 28.582031 69.910156 29.375 71.007812 30.386719 71.007812 C 31.394531 71.007812 32.1875 69.910156 32.1875 68.511719 C 32.1875 67.113281 31.394531 66.019531 30.386719 66.019531 Z M 30.386719 69.832031 C 30.136719 69.832031 29.761719 69.304688 29.761719 68.511719 C 29.761719 67.722656 30.136719 67.195312 30.386719 67.195312 C 30.632812 67.195312 31.011719 67.722656 31.011719 68.511719 C 31.007812 69.304688 30.632812 69.832031 30.386719 69.832031 Z M 30.386719 69.832031 " fill-opacity="1" fill-rule="nonzero"/><path fill="#503047" d="M 17.730469 11.753906 L 19.570312 12.207031 C 19.574219 13.183594 20.1875 14.175781 21.222656 15 L 20.304688 16.558594 C 20.136719 16.835938 20.230469 17.199219 20.511719 17.363281 C 20.605469 17.417969 20.707031 17.445312 20.808594 17.445312 C 21.011719 17.445312 21.207031 17.339844 21.316406 17.15625 L 22.203125 15.652344 C 22.855469 16.019531 23.609375 16.324219 24.433594 16.542969 C 24.777344 16.628906 25.113281 16.695312 25.449219 16.746094 L 25.546875 19.199219 C 25.558594 19.515625 25.820312 19.765625 26.136719 19.765625 C 26.144531 19.765625 26.152344 19.765625 26.160156 19.765625 C 26.484375 19.75 26.734375 19.476562 26.722656 19.152344 L 26.628906 16.851562 C 26.6875 16.851562 26.75 16.855469 26.8125 16.855469 C 27.222656 16.855469 27.621094 16.824219 27.996094 16.761719 L 28.902344 18.867188 C 29 19.089844 29.214844 19.222656 29.445312 19.222656 C 29.523438 19.222656 29.601562 19.207031 29.675781 19.175781 C 29.976562 19.046875 30.113281 18.699219 29.984375 18.402344 L 29.144531 16.453125 C 29.492188 16.316406 29.800781 16.148438 30.070312 15.945312 C 30.664062 16.390625 31.398438 16.65625 32.195312 16.65625 C 34.160156 16.65625 35.757812 15.058594 35.757812 13.09375 C 35.757812 12.292969 35.488281 11.550781 35.039062 10.957031 C 35.28125 10.613281 35.632812 10.46875 36.160156 10.503906 C 36.488281 10.53125 36.765625 10.285156 36.785156 9.960938 C 36.808594 9.636719 36.566406 9.355469 36.242188 9.332031 C 35.359375 9.265625 34.652344 9.542969 34.171875 10.132812 C 33.929688 9.96875 33.664062 9.839844 33.378906 9.738281 C 33.714844 8.4375 34.53125 7.484375 35.863281 6.839844 C 36.15625 6.695312 36.277344 6.34375 36.136719 6.054688 C 35.996094 5.761719 35.644531 5.640625 35.351562 5.78125 C 33.675781 6.59375 32.632812 7.855469 32.226562 9.53125 C 32.214844 9.53125 32.207031 9.53125 32.195312 9.53125 C 31.273438 9.53125 30.433594 9.886719 29.800781 10.460938 C 29.222656 8.164062 27.691406 6.515625 26.386719 5.726562 C 25.195312 5.007812 23.980469 4.839844 23.066406 5.261719 C 22.183594 5.664062 21.664062 6.53125 21.671875 7.585938 C 21.675781 8.289062 21.914062 8.957031 22.308594 9.496094 C 21.171875 9.75 20.296875 10.292969 19.859375 11.066406 L 18.011719 10.613281 C 17.695312 10.53125 17.375 10.726562 17.300781 11.042969 C 17.222656 11.359375 17.414062 11.675781 17.730469 11.753906 Z M 23.433594 14.953125 C 23.246094 12.941406 23.664062 11.496094 24.707031 10.558594 C 25.101562 10.601562 25.511719 10.675781 25.9375 10.785156 C 26.019531 10.808594 26.097656 10.839844 26.179688 10.863281 C 25.292969 12.175781 25.066406 13.75 25.515625 15.566406 C 25.261719 15.523438 25 15.472656 24.730469 15.402344 C 24.261719 15.28125 23.832031 15.125 23.433594 14.953125 Z M 26.769531 15.671875 C 26.238281 13.902344 26.421875 12.460938 27.332031 11.292969 C 27.871094 11.539062 28.351562 11.832031 28.761719 12.164062 C 28.679688 12.460938 28.632812 12.773438 28.632812 13.09375 C 28.632812 13.832031 28.859375 14.519531 29.246094 15.085938 C 29.003906 15.246094 28.703125 15.382812 28.34375 15.480469 C 28.265625 15.480469 28.183594 15.496094 28.105469 15.527344 C 28.097656 15.53125 28.097656 15.535156 28.089844 15.539062 C 27.699219 15.625 27.253906 15.671875 26.769531 15.671875 Z M 32.195312 10.707031 C 33.511719 10.707031 34.582031 11.777344 34.582031 13.09375 C 34.582031 14.410156 33.511719 15.480469 32.195312 15.480469 C 30.878906 15.480469 29.808594 14.410156 29.808594 13.09375 C 29.808594 11.777344 30.878906 10.707031 32.195312 10.707031 Z M 22.847656 7.578125 C 22.847656 7.234375 22.933594 6.613281 23.554688 6.328125 C 24.105469 6.078125 24.9375 6.230469 25.78125 6.734375 C 26.863281 7.386719 28.125 8.742188 28.636719 10.636719 C 28.246094 10.40625 27.820312 10.199219 27.371094 10.019531 C 27.367188 10.019531 27.363281 10.015625 27.355469 10.015625 C 26.996094 9.875 26.621094 9.75 26.234375 9.648438 C 25.667969 9.5 25.109375 9.410156 24.574219 9.363281 C 24.574219 9.363281 24.570312 9.363281 24.566406 9.363281 C 24.328125 9.34375 24.089844 9.332031 23.855469 9.332031 C 23.265625 9.019531 22.855469 8.316406 22.847656 7.578125 Z M 23.15625 10.550781 C 22.5 11.523438 22.1875 12.769531 22.214844 14.269531 C 21.136719 13.503906 20.597656 12.585938 20.773438 11.90625 C 20.953125 11.230469 21.855469 10.695312 23.15625 10.550781 Z M 23.15625 10.550781 " fill-opacity="1" fill-rule="nonzero"/></svg>