<svg xmlns="http://www.w3.org/2000/svg" xmlns:xlink="http://www.w3.org/1999/xlink" width="100" zoomAndPan="magnify" viewBox="0 0 75 74.999997" height="100" preserveAspectRatio="xMidYMid meet" version="1.0"><defs><clipPath id="a0dcecc500"><path d="M 5.429688 0 L 69.929688 0 L 69.929688 74.25 L 5.429688 74.25 Z M 5.429688 0 " clip-rule="nonzero"/></clipPath></defs><g clip-path="url(#a0dcecc500)"><path fill="#503047" d="M 66.972656 25.433594 L 66.941406 25.328125 C 67.855469 24.753906 68.4375 23.8125 68.535156 22.71875 C 68.640625 21.5625 68.175781 20.421875 67.292969 19.667969 L 62.179688 15.316406 L 61.570312 14.738281 C 61.769531 14.234375 61.8125 13.777344 61.8125 13.496094 C 61.8125 12.851562 61.628906 12.328125 61.429688 11.945312 C 63.9375 9.785156 64.074219 6.804688 64.074219 6.199219 C 64.074219 2.582031 61.523438 0.496094 61.011719 0.117188 C 60.910156 0.0390625 60.785156 0 60.660156 0 L 14.277344 0 C 14.148438 0 14.027344 0.0390625 13.925781 0.117188 C 13.414062 0.496094 10.859375 2.582031 10.859375 6.199219 C 10.859375 6.804688 10.996094 9.785156 13.503906 11.945312 C 13.308594 12.328125 13.121094 12.855469 13.121094 13.496094 C 13.121094 13.765625 13.160156 14.199219 13.339844 14.679688 L 12.511719 15.273438 L 6.980469 19.421875 C 6.304688 19.929688 5.941406 20.730469 6.011719 21.566406 C 6.082031 22.421875 6.585938 23.175781 7.363281 23.582031 C 7.367188 23.582031 7.417969 23.609375 7.421875 23.609375 C 7.777344 23.800781 8.0625 24.03125 8.300781 24.265625 L 7.960938 25.441406 C 6.167969 31.453125 5.433594 37.644531 5.769531 43.839844 C 6.25 52.65625 8.964844 61.378906 13.613281 69.09375 C 13.363281 69.636719 13.121094 70.386719 13.121094 71.3125 C 13.121094 71.921875 13.234375 72.855469 13.757812 73.835938 C 13.859375 74.023438 14.058594 74.144531 14.277344 74.144531 L 60.660156 74.144531 C 60.875 74.144531 61.074219 74.023438 61.175781 73.835938 C 61.703125 72.855469 61.8125 71.921875 61.8125 71.3125 C 61.8125 70.386719 61.570312 69.636719 61.324219 69.09375 C 65.972656 61.378906 68.683594 52.652344 69.164062 43.839844 C 69.503906 37.644531 68.765625 31.453125 66.972656 25.433594 Z M 14.589844 14.59375 C 14.339844 14.15625 14.300781 13.730469 14.300781 13.5 C 14.300781 13.03125 14.449219 12.65625 14.59375 12.402344 L 60.339844 12.402344 C 60.484375 12.65625 60.636719 13.03125 60.636719 13.5 C 60.636719 13.730469 60.59375 14.15625 60.34375 14.59375 Z M 12.039062 6.199219 C 12.039062 3.410156 13.898438 1.65625 14.480469 1.175781 L 60.453125 1.175781 C 61.035156 1.65625 62.898438 3.410156 62.898438 6.199219 C 62.898438 6.523438 62.828125 9.347656 60.457031 11.226562 L 14.476562 11.226562 C 12.105469 9.347656 12.039062 6.523438 12.039062 6.199219 Z M 7.90625 22.535156 C 7.492188 22.320312 7.222656 21.921875 7.183594 21.46875 C 7.148438 21.035156 7.332031 20.632812 7.6875 20.363281 L 13.207031 16.222656 L 13.972656 15.671875 C 14.0625 15.730469 14.164062 15.769531 14.277344 15.769531 L 16.851562 15.769531 L 15.414062 20.046875 C 15.3125 20.355469 15.476562 20.6875 15.785156 20.792969 C 15.847656 20.8125 15.910156 20.820312 15.972656 20.820312 C 16.21875 20.820312 16.449219 20.667969 16.53125 20.421875 L 18.09375 15.769531 L 24.289062 15.769531 L 23.316406 20.105469 C 23.246094 20.421875 23.445312 20.738281 23.761719 20.808594 C 23.808594 20.816406 23.851562 20.820312 23.894531 20.820312 C 24.164062 20.820312 24.40625 20.636719 24.464844 20.363281 L 25.496094 15.769531 L 32.355469 15.769531 L 32.355469 20.234375 C 32.355469 20.558594 32.617188 20.820312 32.941406 20.820312 C 33.269531 20.820312 33.53125 20.558594 33.53125 20.234375 L 33.53125 15.769531 L 41.40625 15.769531 L 41.40625 20.234375 C 41.40625 20.558594 41.667969 20.820312 41.992188 20.820312 C 42.316406 20.820312 42.582031 20.558594 42.582031 20.234375 L 42.582031 15.769531 L 49.441406 15.769531 L 50.46875 20.363281 C 50.53125 20.636719 50.773438 20.820312 51.042969 20.820312 C 51.085938 20.820312 51.128906 20.816406 51.171875 20.808594 C 51.488281 20.738281 51.6875 20.421875 51.617188 20.105469 L 50.648438 15.769531 L 56.839844 15.769531 L 58.402344 20.421875 C 58.488281 20.667969 58.714844 20.824219 58.960938 20.824219 C 59.023438 20.824219 59.085938 20.8125 59.148438 20.792969 C 59.457031 20.6875 59.625 20.355469 59.519531 20.046875 L 58.082031 15.769531 L 60.660156 15.769531 C 60.738281 15.769531 60.816406 15.746094 60.890625 15.714844 L 61.390625 16.191406 L 66.527344 20.5625 C 67.121094 21.070312 67.433594 21.835938 67.363281 22.609375 C 67.296875 23.367188 66.882812 24.011719 66.242188 24.382812 L 66.1875 24.414062 C 64.308594 25.464844 62.398438 24.550781 62.148438 24.421875 C 61.492188 23.976562 59.789062 23.039062 57.578125 23.429688 C 55.738281 23.753906 54.566406 24.816406 54.019531 25.4375 C 53.523438 25.894531 51.824219 27.273438 49.390625 27.097656 C 47.492188 26.96875 46.195312 25.988281 45.621094 25.449219 C 45.273438 25.074219 43.398438 23.203125 40.515625 23.421875 C 37.847656 23.617188 36.324219 25.410156 35.957031 25.910156 C 34.527344 27.496094 32.402344 28.152344 30.550781 27.578125 C 29.058594 27.121094 28.191406 26.003906 27.808594 25.378906 C 27.539062 24.9375 27.253906 24.574219 26.945312 24.265625 C 26.167969 23.507812 24.851562 22.582031 22.996094 22.503906 C 19.835938 22.371094 18.054688 24.773438 17.855469 25.0625 C 16.839844 26.578125 15.070312 27.378906 13.347656 27.101562 C 12.625 26.988281 11.652344 26.671875 10.511719 25.246094 C 10.289062 24.96875 10.089844 24.664062 9.902344 24.375 C 9.742188 24.125 9.558594 23.898438 9.367188 23.683594 C 9.351562 23.667969 9.339844 23.652344 9.324219 23.640625 C 8.929688 23.210938 8.480469 22.84375 7.980469 22.574219 Z M 60.289062 72.96875 L 14.644531 72.96875 C 14.363281 72.320312 14.300781 71.722656 14.300781 71.3125 C 14.300781 70.632812 14.46875 70.070312 14.648438 69.65625 L 60.289062 69.65625 C 60.46875 70.070312 60.636719 70.632812 60.636719 71.3125 C 60.636719 71.722656 60.570312 72.320312 60.289062 72.96875 Z M 67.988281 43.777344 C 67.519531 52.394531 64.871094 60.925781 60.328125 68.476562 L 14.609375 68.476562 C 10.0625 60.925781 7.417969 52.394531 6.945312 43.777344 C 6.617188 37.714844 7.335938 31.660156 9.089844 25.773438 L 9.1875 25.425781 C 9.316406 25.613281 9.445312 25.796875 9.589844 25.980469 C 11 27.738281 12.300781 28.125 13.160156 28.265625 C 15.335938 28.613281 17.5625 27.613281 18.824219 25.726562 C 18.886719 25.640625 20.386719 23.570312 22.945312 23.679688 C 24.429688 23.742188 25.492188 24.492188 26.121094 25.105469 C 26.359375 25.34375 26.585938 25.632812 26.808594 25.996094 C 27.277344 26.761719 28.34375 28.132812 30.203125 28.707031 C 30.757812 28.875 31.332031 28.960938 31.90625 28.960938 C 33.707031 28.960938 35.523438 28.144531 36.863281 26.65625 C 37.097656 26.339844 38.375 24.757812 40.601562 24.597656 C 42.957031 24.425781 44.472656 25.9375 44.78125 26.277344 C 45.5 26.953125 47.046875 28.117188 49.308594 28.269531 C 52.25 28.464844 54.289062 26.796875 54.84375 26.277344 C 54.855469 26.261719 54.871094 26.25 54.882812 26.234375 C 55.320312 25.734375 56.273438 24.855469 57.78125 24.589844 C 59.601562 24.269531 60.996094 25.058594 61.511719 25.414062 C 61.53125 25.425781 61.546875 25.4375 61.566406 25.445312 C 61.660156 25.496094 63.660156 26.546875 65.863281 25.832031 C 67.601562 31.699219 68.320312 37.734375 67.988281 43.777344 Z M 67.988281 43.777344 " fill-opacity="1" fill-rule="nonzero"/></g><path fill="#503047" d="M 65.75 42.097656 L 9.1875 42.097656 C 8.863281 42.097656 8.597656 42.359375 8.597656 42.683594 C 8.597656 43.011719 8.863281 43.273438 9.1875 43.273438 L 65.75 43.273438 C 66.074219 43.273438 66.335938 43.011719 66.335938 42.683594 C 66.335938 42.359375 66.074219 42.097656 65.75 42.097656 Z M 65.75 42.097656 " fill-opacity="1" fill-rule="nonzero"/><path fill="#503047" d="M 19.933594 60.621094 C 18.671875 60.621094 17.648438 61.640625 17.648438 62.890625 C 17.648438 64.144531 18.671875 65.164062 19.933594 65.164062 C 21.195312 65.164062 22.21875 64.144531 22.21875 62.890625 C 22.21875 61.640625 21.195312 60.621094 19.933594 60.621094 Z M 19.933594 63.988281 C 19.320312 63.988281 18.824219 63.496094 18.824219 62.890625 C 18.824219 62.289062 19.320312 61.796875 19.933594 61.796875 C 20.542969 61.796875 21.042969 62.289062 21.042969 62.890625 C 21.042969 63.496094 20.542969 63.988281 19.933594 63.988281 Z M 19.933594 63.988281 " fill-opacity="1" fill-rule="nonzero"/><path fill="#503047" d="M 14.847656 53.773438 C 14.464844 52.167969 14.277344 50.519531 14.300781 48.867188 C 14.304688 48.640625 14.171875 48.429688 13.96875 48.332031 C 13.765625 48.230469 13.519531 48.257812 13.34375 48.402344 C 13.21875 48.503906 10.308594 50.898438 10.867188 54.5625 C 11.292969 57.34375 13.53125 59.570312 16.433594 60.101562 C 16.46875 60.109375 16.503906 60.113281 16.539062 60.113281 C 16.730469 60.113281 16.910156 60.019531 17.023438 59.863281 C 17.15625 59.675781 17.164062 59.425781 17.046875 59.226562 C 16.046875 57.519531 15.308594 55.6875 14.847656 53.773438 Z M 12.03125 54.382812 C 11.761719 52.636719 12.496094 51.210938 13.15625 50.324219 C 13.226562 51.578125 13.410156 52.828125 13.703125 54.046875 C 14.078125 55.605469 14.628906 57.117188 15.34375 58.550781 C 13.585938 57.792969 12.3125 56.238281 12.03125 54.382812 Z M 12.03125 54.382812 " fill-opacity="1" fill-rule="nonzero"/></svg>