<svg xmlns="http://www.w3.org/2000/svg" xmlns:xlink="http://www.w3.org/1999/xlink" width="100" zoomAndPan="magnify" viewBox="0 0 75 74.999997" height="100" preserveAspectRatio="xMidYMid meet" version="1.0"><defs><clipPath id="6c423c5b84"><path d="M 5.328125 1 L 69 1 L 69 75 L 5.328125 75 Z M 5.328125 1 " clip-rule="nonzero"/></clipPath></defs><g clip-path="url(#6c423c5b84)"><path fill="#503047" d="M 15.15625 37.65625 L 15.15625 67.113281 C 15.15625 71.425781 18.664062 74.933594 22.976562 74.933594 L 35.960938 74.933594 C 38.285156 74.933594 40.472656 73.890625 41.953125 72.125 C 44.1875 72.980469 46.589844 73.457031 49.074219 73.457031 C 53.539062 73.457031 57.769531 71.996094 61.289062 69.234375 C 68.960938 63.21875 71.117188 52.292969 66.292969 43.816406 C 66.179688 43.613281 65.980469 43.46875 65.757812 43.414062 C 65.53125 43.363281 65.292969 43.40625 65.097656 43.535156 L 43.78125 57.835938 L 43.78125 26.984375 C 43.78125 26.523438 43.402344 26.144531 42.941406 26.144531 L 32.457031 26.144531 L 35.4375 10.777344 L 49.378906 2.597656 C 49.777344 2.363281 49.914062 1.851562 49.675781 1.449219 C 49.441406 1.050781 48.925781 0.917969 48.527344 1.148438 L 34.261719 9.519531 C 34.054688 9.644531 33.90625 9.847656 33.863281 10.085938 L 30.746094 26.144531 L 26.664062 26.144531 C 26.230469 20.632812 21.617188 16.273438 15.992188 16.273438 C 10.085938 16.273438 5.28125 21.078125 5.28125 26.984375 C 5.28125 32.609375 9.640625 37.222656 15.15625 37.65625 Z M 65.269531 45.449219 C 69.113281 53.082031 67.042969 62.59375 60.257812 67.910156 C 57.03125 70.4375 53.167969 71.777344 49.082031 71.777344 L 49.078125 71.777344 C 43.757812 71.777344 38.808594 69.503906 35.355469 65.515625 Z M 26.621094 51.835938 C 26.671875 51.847656 26.726562 51.851562 26.78125 51.851562 C 27.175781 51.851562 27.527344 51.574219 27.605469 51.171875 L 32.136719 27.824219 L 42.109375 27.824219 L 42.109375 58.96875 L 33.652344 64.640625 C 33.460938 64.769531 33.328125 64.972656 33.289062 65.207031 C 33.253906 65.4375 33.316406 65.667969 33.460938 65.855469 C 35.328125 68.242188 37.671875 70.121094 40.296875 71.417969 C 39.148438 72.5625 37.609375 73.253906 35.964844 73.253906 L 22.980469 73.253906 C 19.59375 73.253906 16.839844 70.496094 16.839844 67.109375 L 16.839844 27.824219 L 30.425781 27.824219 L 25.957031 50.851562 C 25.867188 51.308594 26.164062 51.75 26.621094 51.835938 Z M 15.996094 17.953125 C 20.6875 17.953125 24.511719 21.5625 24.941406 26.144531 L 15.996094 26.144531 C 15.53125 26.144531 15.15625 26.523438 15.15625 26.984375 L 15.15625 35.929688 C 10.574219 35.5 6.960938 31.675781 6.960938 26.984375 C 6.960938 22.003906 11.015625 17.953125 15.996094 17.953125 Z M 15.996094 17.953125 " fill-opacity="1" fill-rule="nonzero"/></g><path fill="#503047" d="M 15.996094 25.398438 C 16.457031 25.398438 16.835938 25.023438 16.835938 24.558594 L 16.835938 20.195312 C 16.835938 19.734375 16.457031 19.355469 15.996094 19.355469 C 15.53125 19.355469 15.15625 19.734375 15.15625 20.195312 L 15.15625 24.558594 C 15.15625 25.023438 15.53125 25.398438 15.996094 25.398438 Z M 15.996094 25.398438 " fill-opacity="1" fill-rule="nonzero"/><path fill="#503047" d="M 13.6875 25.863281 C 13.851562 26.03125 14.066406 26.109375 14.28125 26.109375 C 14.496094 26.109375 14.710938 26.027344 14.875 25.863281 C 15.203125 25.539062 15.203125 25.003906 14.875 24.675781 L 11.792969 21.59375 C 11.464844 21.265625 10.929688 21.265625 10.605469 21.59375 C 10.277344 21.921875 10.277344 22.453125 10.605469 22.78125 Z M 13.6875 25.863281 " fill-opacity="1" fill-rule="nonzero"/><path fill="#503047" d="M 14.410156 26.984375 C 14.410156 26.523438 14.035156 26.144531 13.570312 26.144531 L 9.207031 26.144531 C 8.746094 26.144531 8.367188 26.523438 8.367188 26.984375 C 8.367188 27.449219 8.746094 27.824219 9.207031 27.824219 L 13.570312 27.824219 C 14.035156 27.824219 14.410156 27.449219 14.410156 26.984375 Z M 14.410156 26.984375 " fill-opacity="1" fill-rule="nonzero"/><path fill="#503047" d="M 13.6875 28.105469 L 10.601562 31.191406 C 10.273438 31.515625 10.273438 32.050781 10.601562 32.378906 C 10.765625 32.542969 10.980469 32.625 11.195312 32.625 C 11.410156 32.625 11.625 32.542969 11.792969 32.378906 L 14.875 29.292969 C 15.203125 28.96875 15.203125 28.433594 14.875 28.105469 C 14.550781 27.78125 14.015625 27.78125 13.6875 28.105469 Z M 13.6875 28.105469 " fill-opacity="1" fill-rule="nonzero"/><path fill="#503047" d="M 17.710938 26.109375 C 17.925781 26.109375 18.140625 26.027344 18.304688 25.867188 L 21.390625 22.78125 C 21.71875 22.457031 21.71875 21.921875 21.390625 21.59375 C 21.0625 21.269531 20.53125 21.269531 20.203125 21.59375 L 17.117188 24.679688 C 16.792969 25.003906 16.792969 25.539062 17.117188 25.867188 C 17.28125 26.027344 17.496094 26.109375 17.710938 26.109375 Z M 17.710938 26.109375 " fill-opacity="1" fill-rule="nonzero"/><path fill="#503047" d="M 55.894531 65.3125 C 56.058594 65.554688 56.324219 65.683594 56.589844 65.683594 C 56.753906 65.683594 56.914062 65.640625 57.058594 65.542969 C 57.441406 65.285156 57.546875 64.761719 57.285156 64.378906 L 53.804688 59.183594 C 53.542969 58.796875 53.015625 58.695312 52.640625 58.953125 C 52.253906 59.210938 52.152344 59.730469 52.410156 60.113281 Z M 55.894531 65.3125 " fill-opacity="1" fill-rule="nonzero"/><path fill="#503047" d="M 56.019531 55.847656 L 62.15625 57.058594 C 62.210938 57.070312 62.265625 57.074219 62.320312 57.074219 C 62.710938 57.074219 63.0625 56.796875 63.144531 56.398438 C 63.234375 55.941406 62.9375 55.5 62.480469 55.414062 L 56.339844 54.203125 C 55.894531 54.113281 55.449219 54.410156 55.355469 54.863281 C 55.265625 55.320312 55.566406 55.761719 56.019531 55.847656 Z M 56.019531 55.847656 " fill-opacity="1" fill-rule="nonzero"/><path fill="#503047" d="M 46.292969 67.703125 C 46.34375 67.714844 46.398438 67.722656 46.457031 67.722656 C 46.84375 67.722656 47.195312 67.445312 47.277344 67.042969 L 48.488281 60.90625 C 48.574219 60.449219 48.28125 60.011719 47.824219 59.921875 C 47.371094 59.832031 46.929688 60.128906 46.839844 60.582031 L 45.628906 66.722656 C 45.539062 67.175781 45.835938 67.617188 46.292969 67.703125 Z M 46.292969 67.703125 " fill-opacity="1" fill-rule="nonzero"/></svg>