<svg xmlns="http://www.w3.org/2000/svg" xmlns:xlink="http://www.w3.org/1999/xlink" width="100" zoomAndPan="magnify" viewBox="0 0 75 74.999997" height="100" preserveAspectRatio="xMidYMid meet" version="1.0"><defs><clipPath id="a6092e4e4a"><path d="M 9 23.003906 L 46 23.003906 L 46 55 L 9 55 Z M 9 23.003906 " clip-rule="nonzero"/></clipPath></defs><path fill="#503047" d="M 23.96875 69.492188 C 22.078125 69.492188 20.191406 68.972656 18.609375 67.929688 C 15.5 65.886719 13.808594 62.0625 14.398438 58.414062 C 14.644531 56.914062 15.230469 55.566406 15.796875 54.265625 C 16.0625 53.652344 16.316406 53.070312 16.53125 52.476562 C 16.945312 51.351562 17.492188 49.246094 16.554688 47.808594 C 16.152344 47.191406 16.328125 46.371094 16.941406 45.96875 C 17.558594 45.566406 18.378906 45.742188 18.777344 46.355469 C 20.269531 48.644531 19.738281 51.445312 19.027344 53.386719 C 18.78125 54.054688 18.503906 54.699219 18.230469 55.324219 C 17.707031 56.53125 17.210938 57.667969 17.019531 58.839844 C 16.601562 61.429688 17.851562 64.253906 20.066406 65.710938 C 22.257812 67.148438 25.375 67.210938 27.644531 65.851562 C 29.929688 64.496094 31.363281 61.78125 31.222656 59.101562 C 31.125 57.308594 30.40625 55.546875 29.648438 53.675781 C 28.605469 51.117188 27.527344 48.46875 28.042969 45.554688 C 28.171875 44.832031 28.859375 44.347656 29.582031 44.480469 C 30.304688 44.609375 30.785156 45.296875 30.65625 46.019531 C 30.273438 48.175781 31.164062 50.363281 32.105469 52.675781 C 32.917969 54.664062 33.753906 56.722656 33.875 58.960938 C 34.066406 62.597656 32.109375 66.285156 29.003906 68.136719 C 27.480469 69.042969 25.722656 69.492188 23.96875 69.492188 Z M 23.96875 69.492188 " fill-opacity="1" fill-rule="nonzero"/><path fill="#503047" d="M 12.332031 47.828125 C 11.800781 47.828125 11.292969 47.5 11.09375 46.96875 C 10.832031 46.285156 11.175781 45.519531 11.859375 45.257812 C 19.570312 42.320312 28.195312 41.90625 36.148438 44.082031 C 36.855469 44.273438 37.273438 45.003906 37.078125 45.710938 C 36.882812 46.417969 36.152344 46.835938 35.445312 46.640625 C 28.03125 44.613281 19.992188 45 12.804688 47.738281 C 12.652344 47.796875 12.492188 47.828125 12.332031 47.828125 Z M 12.332031 47.828125 " fill-opacity="1" fill-rule="nonzero"/><path fill="#503047" d="M 12.742188 54.777344 C 10.171875 54.777344 7.976562 54.125 6.191406 52.816406 C 2.804688 50.335938 1.710938 46.097656 1.390625 42.976562 C 0.980469 38.992188 2.253906 34.710938 4.890625 31.238281 C 5.335938 30.65625 6.167969 30.542969 6.75 30.984375 C 7.335938 31.425781 7.449219 32.261719 7.007812 32.84375 C 4.773438 35.785156 3.6875 39.378906 4.03125 42.707031 C 4.300781 45.289062 5.160156 48.769531 7.761719 50.675781 C 9.730469 52.117188 12.496094 52.484375 15.980469 51.761719 C 16.699219 51.621094 17.402344 52.078125 17.550781 52.796875 C 17.699219 53.511719 17.238281 54.214844 16.519531 54.363281 C 15.183594 54.640625 13.921875 54.777344 12.742188 54.777344 Z M 12.742188 54.777344 " fill-opacity="1" fill-rule="nonzero"/><g clip-path="url(#a6092e4e4a)"><path fill="#503047" d="M 34.417969 54.332031 C 33.332031 54.332031 32.179688 54.210938 30.964844 53.96875 C 30.246094 53.824219 29.78125 53.121094 29.925781 52.402344 C 30.070312 51.683594 30.765625 51.222656 31.488281 51.363281 C 35.078125 52.085938 37.898438 51.546875 39.863281 49.761719 C 42.667969 47.210938 43.269531 42.539062 42.9375 39.3125 C 42.257812 32.6875 36.503906 25.679688 22.519531 25.894531 C 18.144531 25.957031 14.355469 26.992188 11.261719 28.96875 C 10.648438 29.363281 9.824219 29.183594 9.429688 28.5625 C 9.035156 27.945312 9.214844 27.125 9.832031 26.730469 C 13.347656 24.484375 17.605469 23.308594 22.480469 23.238281 C 38.28125 23.015625 44.78125 31.246094 45.578125 39.039062 C 45.996094 43.066406 45.183594 48.511719 41.648438 51.726562 C 39.738281 53.460938 37.316406 54.332031 34.417969 54.332031 Z M 34.417969 54.332031 " fill-opacity="1" fill-rule="nonzero"/></g><path fill="#503047" d="M 48.953125 73.933594 C 48.410156 73.933594 47.871094 73.867188 47.347656 73.734375 C 44.894531 73.113281 42.902344 71.042969 42.394531 68.578125 C 41.875 66.066406 42.914062 63.378906 44.980469 61.890625 C 45.816406 61.289062 46.714844 60.933594 47.585938 60.589844 C 47.960938 60.441406 48.339844 60.296875 48.703125 60.125 L 48.933594 60.042969 C 50.636719 59.605469 51.851562 57.144531 52.09375 55.988281 C 52.246094 55.269531 52.949219 54.808594 53.667969 54.960938 C 54.386719 55.113281 54.84375 55.816406 54.695312 56.535156 C 54.421875 57.828125 52.925781 61.671875 49.71875 62.582031 C 49.335938 62.753906 48.949219 62.910156 48.558594 63.0625 C 47.808594 63.355469 47.097656 63.636719 46.53125 64.042969 C 45.320312 64.917969 44.6875 66.5625 44.992188 68.039062 C 45.296875 69.507812 46.535156 70.789062 48 71.160156 C 49.480469 71.535156 51.164062 71.015625 52.195312 69.871094 C 52.742188 69.265625 53.222656 68.121094 53.734375 66.910156 C 54.8125 64.359375 56.152344 61.1875 59.316406 60.1875 C 60.011719 59.964844 60.761719 60.351562 60.984375 61.050781 C 61.203125 61.75 60.816406 62.496094 60.117188 62.71875 C 58.121094 63.351562 57.136719 65.683594 56.183594 67.941406 C 55.582031 69.363281 55.011719 70.707031 54.167969 71.644531 C 52.859375 73.101562 50.898438 73.933594 48.953125 73.933594 Z M 48.953125 73.933594 " fill-opacity="1" fill-rule="nonzero"/><path fill="#503047" d="M 62.414062 65.511719 C 61.953125 65.511719 61.503906 65.269531 61.261719 64.839844 C 58.878906 60.660156 55.144531 57.273438 50.753906 55.304688 C 50.085938 55.003906 49.785156 54.21875 50.085938 53.550781 C 50.386719 52.882812 51.171875 52.582031 51.839844 52.882812 C 56.742188 55.082031 60.90625 58.859375 63.566406 63.527344 C 63.929688 64.164062 63.707031 64.972656 63.070312 65.335938 C 62.863281 65.453125 62.636719 65.511719 62.414062 65.511719 Z M 62.414062 65.511719 " fill-opacity="1" fill-rule="nonzero"/><path fill="#503047" d="M 48.945312 61.605469 C 48.695312 61.605469 48.441406 61.53125 48.21875 61.386719 C 45.78125 59.785156 44.375 57.871094 44.039062 55.695312 C 43.695312 53.457031 44.515625 51.039062 46.417969 48.703125 C 46.882812 48.132812 47.714844 48.046875 48.285156 48.507812 C 48.855469 48.972656 48.941406 49.808594 48.476562 50.375 C 47.492188 51.589844 46.375 53.425781 46.664062 55.289062 C 46.882812 56.691406 47.894531 57.996094 49.675781 59.167969 C 50.289062 59.570312 50.457031 60.390625 50.054688 61.003906 C 49.800781 61.394531 49.378906 61.605469 48.945312 61.605469 Z M 48.945312 61.605469 " fill-opacity="1" fill-rule="nonzero"/><path fill="#503047" d="M 62.28125 71.460938 C 62.171875 71.460938 62.066406 71.460938 61.960938 71.453125 C 60.292969 71.375 57.859375 70.613281 55.742188 67.425781 C 55.335938 66.816406 55.5 65.992188 56.109375 65.585938 C 56.722656 65.179688 57.546875 65.347656 57.949219 65.957031 C 59.160156 67.773438 60.550781 68.730469 62.085938 68.800781 C 64.324219 68.890625 66.5625 67.167969 67.800781 65.644531 C 71.105469 61.585938 69.9375 56.109375 64.675781 51 C 62.488281 48.878906 58.640625 46.613281 54.992188 47.214844 C 54.269531 47.332031 53.585938 46.84375 53.46875 46.121094 C 53.347656 45.394531 53.839844 44.710938 54.5625 44.59375 C 59.183594 43.835938 63.773438 46.421875 66.527344 49.097656 C 74.007812 56.363281 73.15625 63.273438 69.859375 67.320312 C 68.214844 69.347656 65.382812 71.460938 62.28125 71.460938 Z M 62.28125 71.460938 " fill-opacity="1" fill-rule="nonzero"/></svg>