<svg xmlns="http://www.w3.org/2000/svg" xmlns:xlink="http://www.w3.org/1999/xlink" width="100" zoomAndPan="magnify" viewBox="0 0 75 74.999997" height="100" preserveAspectRatio="xMidYMid meet" version="1.0"><defs><clipPath id="35b8f534eb"><path d="M 1.101562 18.089844 L 68 18.089844 L 68 52 L 1.101562 52 Z M 1.101562 18.089844 " clip-rule="nonzero"/></clipPath><clipPath id="2634649bd1"><path d="M 1.101562 49 L 37 49 L 37 73.589844 L 1.101562 73.589844 Z M 1.101562 49 " clip-rule="nonzero"/></clipPath><clipPath id="74567ffdbf"><path d="M 38 44 L 73.851562 44 L 73.851562 73.589844 L 38 73.589844 Z M 38 44 " clip-rule="nonzero"/></clipPath></defs><path fill="#503047" d="M 35.933594 35.871094 C 35.332031 35.871094 34.625 36.171875 34.324219 36.675781 C 33.621094 37.582031 33.621094 38.789062 33.921875 40 C 34.425781 42.113281 35.632812 44.929688 37.34375 47.347656 C 38.453125 48.957031 39.859375 50.367188 41.472656 51.171875 C 40.164062 52.078125 38.957031 53.285156 38.351562 54.796875 C 38.148438 55.300781 38.351562 55.90625 38.957031 56.207031 C 39.457031 56.40625 40.0625 56.207031 40.363281 55.601562 C 41.171875 53.589844 44.695312 51.675781 47.109375 50.769531 C 47.613281 50.570312 47.914062 49.964844 47.714844 49.460938 C 47.511719 48.957031 46.910156 48.65625 46.40625 48.855469 C 45.699219 49.160156 44.894531 49.460938 43.988281 49.863281 C 42.378906 49.664062 40.667969 48.253906 39.15625 46.238281 C 37.644531 44.125 36.4375 41.40625 36.035156 39.59375 C 35.835938 38.691406 36.035156 38.085938 36.035156 37.984375 C 36.136719 37.984375 36.335938 37.984375 36.839844 38.285156 C 39.257812 39.695312 42.78125 42.816406 46.503906 44.527344 C 50.53125 46.441406 54.457031 48.355469 55.867188 52.179688 C 56.070312 52.683594 56.671875 52.984375 57.175781 52.785156 C 57.679688 52.582031 57.980469 51.976562 57.78125 51.476562 C 56.070312 46.742188 51.4375 44.628906 47.410156 42.714844 C 44.089844 41.105469 40.667969 38.1875 37.949219 36.574219 C 37.144531 36.070312 36.539062 35.871094 35.933594 35.871094 Z M 35.933594 35.871094 " fill-opacity="1" fill-rule="nonzero"/><g clip-path="url(#35b8f534eb)"><path fill="#503047" d="M 17.714844 24.59375 C 21.539062 26.207031 24.257812 26.003906 26.371094 26.003906 C 27.78125 26.003906 28.886719 26.003906 29.996094 26.609375 C 26.371094 27.214844 22.949219 28.320312 20.027344 29.832031 C 18.519531 27.113281 16.503906 25.703125 14.695312 25.300781 C 13.585938 25 12.578125 25.097656 11.976562 25 C 11.371094 24.898438 10.867188 24.59375 10.867188 24.191406 C 10.867188 23.691406 11.875 23.1875 12.175781 23.1875 C 12.679688 23.085938 13.082031 22.582031 12.980469 21.976562 C 12.882812 21.375 12.78125 20.46875 13.285156 20.367188 C 13.988281 20.167969 14.492188 21.375 14.996094 22.480469 C 15.5 23.386719 16.605469 24.09375 17.714844 24.59375 Z M 11.269531 19.460938 C 10.96875 20.066406 10.96875 20.769531 10.96875 21.476562 C 10.464844 21.675781 9.859375 21.878906 9.457031 22.28125 C 9.15625 22.683594 8.855469 23.085938 8.753906 23.691406 C 8.652344 24.292969 8.753906 24.898438 9.054688 25.402344 C 9.660156 26.507812 10.867188 26.910156 11.773438 27.011719 C 12.679688 27.113281 13.484375 27.011719 14.191406 27.214844 C 15.5 27.515625 17.007812 28.421875 18.21875 30.835938 C 17.511719 31.339844 16.808594 31.742188 16.203125 32.347656 C 14.894531 32.144531 13.484375 31.84375 11.976562 31.140625 C 10.96875 30.738281 10.464844 30.332031 10.0625 29.328125 C 9.859375 28.722656 9.558594 28.019531 9.15625 27.3125 C 8.652344 26.609375 7.949219 26.105469 6.839844 25.90625 C 5.734375 25.703125 4.726562 26.40625 4.222656 27.214844 C 3.820312 27.816406 3.820312 28.621094 3.820312 29.429688 C 3.21875 29.628906 2.613281 29.832031 2.007812 30.332031 C 1.605469 30.738281 1.304688 31.140625 1.203125 31.742188 C 1.101562 32.449219 1.203125 33.152344 1.503906 33.757812 C 2.210938 35.066406 3.417969 35.46875 4.425781 35.570312 C 5.433594 35.667969 6.335938 35.667969 7.042969 35.871094 C 9.859375 36.878906 10.667969 38.085938 11.371094 39.898438 C 10.164062 41.105469 8.753906 42.816406 7.746094 44.527344 C 6.539062 46.441406 5.632812 48.65625 6.4375 50.667969 C 6.640625 51.171875 7.242188 51.476562 7.847656 51.273438 C 8.351562 51.070312 8.652344 50.46875 8.453125 49.964844 C 8.148438 49.160156 8.550781 47.449219 9.660156 45.738281 C 10.464844 44.429688 11.472656 43.21875 12.378906 42.214844 C 13.082031 43.925781 13.988281 45.835938 16.101562 47.648438 C 16.503906 48.050781 17.210938 47.953125 17.613281 47.546875 C 18.015625 47.144531 17.914062 46.441406 17.511719 46.039062 C 15.097656 43.925781 14.59375 41.910156 13.789062 39.796875 C 12.980469 37.683594 11.671875 35.367188 8.050781 34.058594 C 6.839844 33.65625 5.632812 33.65625 4.929688 33.65625 C 4.121094 33.554688 3.621094 33.355469 3.621094 32.546875 C 3.621094 31.84375 4.828125 31.441406 5.230469 31.339844 C 5.734375 31.238281 6.136719 30.738281 6.136719 30.132812 C 6.035156 29.429688 6.238281 28.320312 6.640625 28.117188 C 7.042969 27.917969 7.546875 28.320312 7.746094 28.621094 C 7.949219 28.925781 8.148438 29.527344 8.453125 30.234375 C 9.054688 31.742188 10.265625 32.648438 11.472656 33.152344 C 15.097656 34.664062 18.117188 34.664062 20.632812 34.761719 C 23.148438 34.964844 25.265625 35.265625 27.679688 37.582031 C 30.597656 40.402344 31.503906 44.226562 29.59375 48.050781 C 29.289062 48.554688 29.492188 49.160156 30.097656 49.460938 C 30.597656 49.761719 31.203125 49.5625 31.503906 48.957031 C 33.820312 44.429688 32.714844 39.394531 29.089844 36.070312 C 26.269531 33.453125 23.453125 32.851562 20.734375 32.75 C 20.332031 32.75 20.027344 32.75 19.625 32.648438 C 27.378906 27.714844 40.96875 26.910156 51.136719 29.929688 C 55.164062 31.140625 58.789062 33.152344 61.503906 35.667969 C 64.121094 38.1875 65.734375 41.105469 65.734375 43.925781 C 65.734375 45.132812 65.53125 46.339844 65.230469 47.648438 C 65.128906 48.253906 65.433594 48.757812 66.035156 48.855469 C 66.640625 48.957031 67.144531 48.65625 67.242188 48.050781 C 67.546875 46.742188 67.746094 45.332031 67.746094 43.925781 C 67.746094 40.300781 65.835938 36.878906 62.8125 34.058594 C 59.894531 31.238281 55.867188 29.125 51.640625 27.816406 C 45.902344 26.105469 39.257812 25.5 33.015625 26.207031 C 30.699219 24.09375 28.484375 23.890625 26.371094 23.890625 C 24.15625 23.890625 21.941406 24.09375 19.726562 23.1875 C 17.511719 22.28125 17.109375 21.976562 16.707031 21.171875 C 16.503906 20.667969 16.203125 19.964844 15.800781 19.359375 C 15.398438 18.757812 14.59375 18.152344 13.484375 18.152344 C 12.578125 18.253906 11.671875 18.757812 11.269531 19.460938 Z M 11.269531 19.460938 " fill-opacity="1" fill-rule="nonzero"/></g><g clip-path="url(#2634649bd1)"><path fill="#503047" d="M 34.324219 60.835938 L 34.324219 63.050781 C 34.324219 63.757812 33.820312 64.359375 32.914062 64.863281 C 32.007812 65.367188 30.699219 65.667969 29.59375 65.769531 C 26.773438 65.972656 24.558594 66.878906 22.546875 68.085938 C 19.929688 69.59375 18.117188 70.90625 15.296875 71.207031 C 13.382812 71.40625 11.371094 71.308594 9.457031 70.804688 C 7.445312 70.300781 5.835938 69.394531 4.726562 68.386719 C 3.71875 67.378906 3.21875 66.375 3.21875 65.265625 L 3.21875 64.160156 C 5.027344 65.570312 7.042969 66.675781 8.855469 67.179688 C 10.96875 67.785156 13.183594 67.882812 15.398438 67.683594 C 18.820312 67.28125 21.035156 65.667969 23.550781 64.261719 C 25.464844 63.152344 27.175781 62.347656 29.59375 62.246094 C 30.902344 62.144531 32.511719 61.84375 33.820312 61.140625 C 34.023438 61.039062 34.121094 60.9375 34.324219 60.835938 Z M 21.035156 51.574219 C 25.566406 51.878906 29.996094 53.386719 32.8125 55.300781 C 33.820312 56.003906 34.324219 56.808594 34.324219 57.414062 C 34.324219 58.117188 33.820312 58.722656 32.914062 59.226562 C 32.007812 59.730469 30.699219 60.03125 29.59375 60.132812 C 26.773438 60.332031 24.558594 61.238281 22.546875 62.449219 C 19.929688 63.957031 18.117188 65.265625 15.296875 65.667969 C 13.382812 65.871094 11.371094 65.769531 9.457031 65.265625 C 7.445312 64.761719 5.835938 63.855469 4.726562 62.851562 C 3.621094 61.84375 3.117188 60.738281 3.21875 59.628906 C 3.316406 57.515625 4.929688 55.703125 7.546875 54.292969 C 10.164062 52.882812 13.6875 51.878906 17.210938 51.574219 C 18.519531 51.476562 19.929688 51.476562 21.035156 51.574219 Z M 17.007812 49.5625 C 13.285156 49.863281 9.558594 50.871094 6.640625 52.480469 C 3.71875 54.09375 1.304688 56.507812 1.304688 59.527344 L 1.304688 65.167969 C 1.304688 66.976562 2.109375 68.691406 3.519531 70 C 4.929688 71.308594 6.839844 72.3125 9.15625 72.917969 C 11.269531 73.523438 13.484375 73.621094 15.699219 73.421875 C 19.121094 73.019531 21.335938 71.40625 23.855469 70 C 25.765625 68.890625 27.480469 68.085938 29.894531 67.984375 C 31.203125 67.882812 32.8125 67.582031 34.121094 66.878906 C 35.433594 66.171875 36.539062 64.964844 36.539062 63.253906 L 36.539062 57.617188 C 36.539062 56.105469 35.53125 54.796875 34.222656 53.789062 C 31.003906 51.476562 26.171875 49.964844 21.335938 49.664062 C 19.726562 49.359375 18.316406 49.460938 17.007812 49.5625 Z M 17.007812 49.5625 " fill-opacity="1" fill-rule="nonzero"/></g><path fill="#503047" d="M 11.875 57.816406 C 12.679688 57.816406 13.382812 58.019531 13.789062 58.320312 C 14.191406 58.621094 14.289062 58.824219 14.289062 59.023438 C 14.289062 59.226562 14.191406 59.429688 13.789062 59.730469 C 13.382812 60.03125 12.679688 60.234375 11.875 60.234375 C 11.070312 60.234375 10.363281 60.03125 9.960938 59.730469 C 9.558594 59.429688 9.457031 59.226562 9.457031 59.023438 C 9.457031 58.824219 9.558594 58.621094 9.960938 58.320312 C 10.363281 58.019531 11.070312 57.816406 11.875 57.816406 Z M 11.875 55.703125 C 10.765625 55.703125 9.660156 56.003906 8.855469 56.507812 C 8.050781 57.011719 7.34375 57.917969 7.34375 58.925781 C 7.34375 59.929688 8.050781 60.835938 8.855469 61.441406 C 9.660156 61.945312 10.765625 62.246094 11.875 62.246094 C 12.980469 62.246094 14.089844 61.945312 14.894531 61.441406 C 15.699219 60.9375 16.40625 60.03125 16.40625 58.925781 C 16.40625 57.816406 15.699219 57.011719 14.894531 56.507812 C 14.089844 56.003906 12.980469 55.703125 11.875 55.703125 Z M 11.875 55.703125 " fill-opacity="1" fill-rule="nonzero"/><g clip-path="url(#74567ffdbf)"><path fill="#503047" d="M 40.363281 61.140625 C 41.671875 62.046875 42.78125 63.65625 43.6875 65.570312 C 44.492188 67.179688 44.996094 68.890625 45.195312 70.300781 C 44.089844 69.59375 42.882812 68.285156 41.976562 66.675781 C 41.070312 64.964844 40.464844 62.953125 40.363281 61.140625 Z M 61.707031 47.953125 C 62.613281 49.261719 63.71875 51.375 64.726562 52.179688 C 64.929688 52.378906 65.230469 52.378906 65.433594 52.378906 C 66.742188 52.28125 67.949219 51.976562 69.15625 51.777344 C 68.550781 52.28125 68.050781 52.984375 67.445312 53.386719 C 65.933594 54.191406 64.425781 54.695312 63.417969 55.300781 C 60.902344 56.808594 59.59375 58.722656 58.183594 60.738281 C 56.773438 62.75 55.164062 64.964844 51.941406 67.480469 C 50.632812 68.488281 48.921875 69.59375 47.3125 70.300781 C 47.109375 68.589844 46.40625 66.574219 45.5 64.664062 C 44.492188 62.648438 43.183594 60.636719 41.574219 59.429688 C 46.40625 57.3125 48.316406 56.609375 51.941406 56.207031 C 54.257812 56.003906 56.269531 56.003906 57.980469 55.601562 C 58.789062 55.402344 59.59375 55.199219 60.296875 54.695312 C 61.003906 54.191406 61.40625 53.386719 61.40625 52.480469 C 61.503906 50.667969 61.605469 49.160156 61.707031 47.953125 Z M 60.398438 45.535156 C 59.089844 48.757812 59.492188 50.367188 59.390625 52.480469 C 59.390625 52.882812 59.289062 52.984375 59.089844 53.1875 C 58.886719 53.386719 58.382812 53.589844 57.679688 53.691406 C 56.269531 53.890625 54.15625 53.992188 51.742188 54.191406 C 47.410156 54.695312 45.5 55.300781 38.652344 58.320312 C 38.351562 58.523438 38.050781 58.824219 38.050781 59.226562 C 37.847656 62.046875 38.753906 65.066406 40.164062 67.683594 C 41.574219 70.300781 43.585938 72.414062 45.902344 73.019531 C 46.101562 73.019531 46.203125 73.019531 46.40625 73.019531 C 48.820312 72.3125 51.4375 70.703125 53.25 69.191406 C 56.671875 66.476562 58.484375 64.058594 59.894531 62.046875 C 61.304688 60.03125 62.410156 58.523438 64.527344 57.214844 C 65.128906 56.808594 66.742188 56.207031 68.550781 55.300781 C 70.265625 54.394531 72.175781 52.984375 73.382812 50.769531 C 73.886719 49.964844 73.183594 49.058594 72.277344 49.261719 C 69.960938 49.761719 68.148438 50.066406 65.933594 50.265625 C 64.828125 49.359375 63.316406 47.449219 62.410156 45.535156 C 62.210938 45.132812 61.808594 44.929688 61.40625 44.929688 C 60.800781 44.832031 60.597656 45.132812 60.398438 45.535156 Z M 60.398438 45.535156 " fill-opacity="1" fill-rule="nonzero"/></g></svg>