<svg xmlns="http://www.w3.org/2000/svg" xmlns:xlink="http://www.w3.org/1999/xlink" width="100" zoomAndPan="magnify" viewBox="0 0 75 74.999997" height="100" preserveAspectRatio="xMidYMid meet" version="1.0"><defs><clipPath id="d2224de5fe"><path d="M 1.488281 9 L 73.488281 9 L 73.488281 74.25 L 1.488281 74.25 Z M 1.488281 9 " clip-rule="nonzero"/></clipPath></defs><g clip-path="url(#d2224de5fe)"><path fill="#503047" d="M 70.917969 29.570312 L 68.5 31.625 C 68.226562 31.160156 67.925781 30.710938 67.609375 30.269531 L 69.871094 28.34375 C 70.035156 28.203125 70.246094 28.136719 70.457031 28.15625 C 70.671875 28.171875 70.867188 28.273438 71.007812 28.4375 C 71.296875 28.773438 71.253906 29.285156 70.917969 29.570312 Z M 69.042969 69.179688 C 69.042969 70.816406 67.710938 72.144531 66.078125 72.144531 L 42.585938 72.144531 L 47.128906 44.671875 C 47.175781 44.386719 47.097656 44.097656 46.910156 43.875 C 46.722656 43.65625 46.449219 43.53125 46.160156 43.53125 L 38.238281 43.53125 L 38.238281 40.730469 C 38.238281 37.230469 39.414062 33.777344 41.550781 31.007812 L 41.648438 30.882812 C 43.019531 29.105469 43.773438 26.890625 43.773438 24.644531 L 43.773438 23.21875 L 63.503906 23.21875 L 63.503906 24.671875 C 63.503906 26.925781 64.265625 29.148438 65.648438 30.933594 L 65.703125 31 C 67.855469 33.777344 69.042969 37.242188 69.042969 40.753906 Z M 40.59375 72.144531 L 8.078125 72.144531 L 4.929688 53.117188 L 43.738281 53.117188 Z M 45 45.496094 L 44.066406 51.152344 L 4.605469 51.152344 L 3.667969 45.496094 Z M 36.71875 29.570312 C 36.382812 29.285156 36.339844 28.773438 36.628906 28.4375 C 36.769531 28.273438 36.964844 28.171875 37.175781 28.15625 C 37.390625 28.136719 37.601562 28.203125 37.765625 28.34375 L 39.796875 30.074219 C 39.472656 30.507812 39.171875 30.957031 38.890625 31.417969 Z M 63.503906 18.308594 L 63.503906 21.25 L 43.773438 21.25 L 43.773438 18.308594 Z M 41.59375 15.058594 C 41.59375 12.890625 43.355469 11.128906 45.523438 11.128906 L 61.753906 11.128906 C 63.921875 11.128906 65.6875 12.890625 65.6875 15.058594 L 65.6875 16.339844 L 41.59375 16.339844 Z M 72.503906 27.160156 C 72.027344 26.597656 71.355469 26.253906 70.617188 26.195312 C 69.878906 26.132812 69.164062 26.367188 68.597656 26.847656 L 66.492188 28.640625 C 65.828125 27.429688 65.472656 26.058594 65.472656 24.671875 L 65.472656 18.308594 L 66.667969 18.308594 C 67.210938 18.308594 67.652344 17.867188 67.652344 17.324219 L 67.652344 15.058594 C 67.652344 11.808594 65.007812 9.164062 61.753906 9.164062 L 45.523438 9.164062 C 42.273438 9.164062 39.625 11.808594 39.625 15.058594 L 39.625 17.324219 C 39.625 17.867188 40.066406 18.308594 40.609375 18.308594 L 41.808594 18.308594 L 41.808594 24.644531 C 41.808594 25.957031 41.484375 27.257812 40.886719 28.421875 L 39.039062 26.847656 C 38.476562 26.367188 37.757812 26.136719 37.019531 26.195312 C 36.28125 26.253906 35.609375 26.597656 35.132812 27.160156 C 34.140625 28.324219 34.28125 30.078125 35.445312 31.070312 L 37.945312 33.195312 C 36.855469 35.546875 36.269531 38.125 36.269531 40.730469 L 36.269531 43.53125 L 2.511719 43.53125 C 2.222656 43.53125 1.949219 43.65625 1.761719 43.875 C 1.574219 44.097656 1.492188 44.386719 1.542969 44.671875 L 6.273438 73.289062 C 6.351562 73.761719 6.761719 74.113281 7.242188 74.113281 L 66.078125 74.113281 C 68.796875 74.113281 71.007812 71.898438 71.007812 69.179688 L 71.007812 40.753906 C 71.007812 38.222656 70.457031 35.714844 69.425781 33.421875 L 72.191406 31.070312 C 73.355469 30.078125 73.496094 28.324219 72.503906 27.160156 " fill-opacity="1" fill-rule="nonzero"/></g><path fill="#503047" d="M 32.675781 11.238281 C 32.28125 13.960938 31.121094 16.476562 29.285156 18.570312 C 29.269531 18.585938 29.257812 18.605469 29.242188 18.621094 C 28.390625 19.660156 28.316406 21.140625 29.070312 22.261719 L 30.636719 24.570312 C 30.878906 24.933594 30.96875 25.371094 30.882812 25.804688 C 30.800781 26.238281 30.554688 26.609375 30.195312 26.855469 C 29.441406 27.363281 28.417969 27.164062 27.910156 26.414062 L 26.273438 23.992188 C 25.523438 22.882812 24.113281 22.390625 22.851562 22.789062 C 22.832031 22.796875 22.8125 22.800781 22.789062 22.808594 C 22.59375 22.871094 22.398438 22.925781 22.199219 22.980469 L 22.140625 22.996094 C 20.835938 23.335938 19.910156 24.523438 19.886719 25.886719 L 19.824219 29.808594 C 19.808594 30.714844 19.050781 31.441406 18.152344 31.425781 C 17.714844 31.417969 17.308594 31.242188 17 30.925781 C 16.695312 30.605469 16.527344 30.191406 16.535156 29.757812 L 16.601562 25.832031 C 16.621094 24.472656 15.734375 23.253906 14.441406 22.871094 L 14.382812 22.851562 C 14.1875 22.792969 13.992188 22.730469 13.800781 22.660156 C 13.777344 22.652344 13.757812 22.648438 13.738281 22.640625 C 13.417969 22.527344 13.082031 22.472656 12.75 22.472656 C 11.796875 22.472656 10.863281 22.925781 10.277344 23.730469 L 8.5625 26.097656 C 8.03125 26.832031 7 26.996094 6.269531 26.464844 C 5.914062 26.207031 5.679688 25.828125 5.613281 25.390625 C 5.542969 24.957031 5.644531 24.519531 5.902344 24.167969 L 7.539062 21.910156 C 8.335938 20.808594 8.3125 19.320312 7.488281 18.269531 C 7.476562 18.253906 7.464844 18.238281 7.453125 18.222656 C 5.789062 16.199219 4.730469 13.800781 4.355469 11.238281 Z M 5.925781 19.460938 C 6.226562 19.828125 6.234375 20.359375 5.945312 20.753906 L 4.308594 23.011719 C 3.746094 23.792969 3.519531 24.746094 3.667969 25.699219 C 3.824219 26.65625 4.335938 27.492188 5.113281 28.054688 C 5.890625 28.621094 6.847656 28.847656 7.800781 28.695312 C 8.753906 28.542969 9.589844 28.03125 10.15625 27.25 L 11.871094 24.886719 C 12.148438 24.5 12.648438 24.339844 13.085938 24.496094 C 13.105469 24.503906 13.128906 24.511719 13.152344 24.519531 C 13.371094 24.59375 13.59375 24.667969 13.816406 24.734375 C 13.835938 24.742188 13.859375 24.75 13.882812 24.753906 C 14.332031 24.886719 14.640625 25.316406 14.632812 25.800781 L 14.570312 29.722656 C 14.535156 31.714844 16.128906 33.359375 18.121094 33.394531 C 18.140625 33.394531 18.160156 33.394531 18.179688 33.394531 C 20.144531 33.394531 21.757812 31.8125 21.789062 29.839844 L 21.851562 25.917969 C 21.863281 25.4375 22.183594 25.015625 22.640625 24.898438 C 22.660156 24.890625 22.683594 24.886719 22.707031 24.878906 C 22.929688 24.820312 23.15625 24.753906 23.378906 24.683594 C 23.398438 24.679688 23.421875 24.671875 23.445312 24.664062 C 23.886719 24.523438 24.378906 24.703125 24.644531 25.09375 L 26.28125 27.515625 C 27.398438 29.164062 29.644531 29.597656 31.292969 28.484375 C 32.09375 27.945312 32.632812 27.125 32.816406 26.175781 C 32.996094 25.226562 32.800781 24.265625 32.265625 23.46875 L 30.699219 21.160156 C 30.425781 20.753906 30.460938 20.214844 30.78125 19.851562 C 30.789062 19.839844 30.800781 19.828125 30.808594 19.816406 C 33.136719 17.140625 34.496094 13.859375 34.75 10.324219 C 34.769531 10.050781 34.675781 9.785156 34.488281 9.585938 C 34.304688 9.382812 34.042969 9.269531 33.769531 9.269531 L 3.261719 9.269531 C 2.988281 9.269531 2.730469 9.382812 2.542969 9.585938 C 2.355469 9.785156 2.261719 10.050781 2.28125 10.324219 C 2.519531 13.671875 3.769531 16.820312 5.898438 19.429688 C 5.90625 19.441406 5.914062 19.449219 5.925781 19.460938 " fill-opacity="1" fill-rule="nonzero"/><path fill="#503047" d="M 47.304688 7.527344 L 50.300781 7.527344 C 50.59375 7.527344 50.871094 7.398438 51.058594 7.175781 C 51.246094 6.949219 51.320312 6.652344 51.269531 6.367188 L 50.789062 3.796875 C 50.726562 3.339844 50.867188 2.878906 51.167969 2.527344 C 51.476562 2.175781 51.921875 1.972656 52.390625 1.972656 L 54.890625 1.972656 C 55.355469 1.972656 55.800781 2.175781 56.109375 2.527344 C 56.414062 2.878906 56.554688 3.34375 56.488281 3.804688 L 56.011719 6.367188 C 55.957031 6.652344 56.035156 6.949219 56.21875 7.175781 C 56.40625 7.398438 56.683594 7.527344 56.976562 7.527344 L 60.035156 7.527344 C 60.578125 7.527344 61.019531 7.089844 61.019531 6.546875 C 61.019531 6.003906 60.578125 5.5625 60.035156 5.5625 L 58.160156 5.5625 L 58.421875 4.175781 C 58.421875 4.167969 58.425781 4.164062 58.425781 4.15625 L 58.433594 4.113281 C 58.433594 4.105469 58.433594 4.097656 58.4375 4.089844 C 58.582031 3.0625 58.273438 2.023438 57.59375 1.238281 C 56.914062 0.457031 55.925781 0.00390625 54.890625 0.00390625 L 52.390625 0.00390625 C 51.351562 0.00390625 50.367188 0.457031 49.683594 1.238281 C 49.003906 2.023438 48.695312 3.0625 48.84375 4.089844 C 48.84375 4.105469 48.847656 4.117188 48.851562 4.132812 L 49.117188 5.5625 L 47.304688 5.5625 C 46.761719 5.5625 46.320312 6.003906 46.320312 6.546875 C 46.320312 7.089844 46.761719 7.527344 47.304688 7.527344 " fill-opacity="1" fill-rule="nonzero"/></svg>