<svg xmlns="http://www.w3.org/2000/svg" xmlns:xlink="http://www.w3.org/1999/xlink" width="100" zoomAndPan="magnify" viewBox="0 0 75 74.999997" height="100" preserveAspectRatio="xMidYMid meet" version="1.0"><defs><clipPath id="5d4b5c9b44"><path d="M 0.945312 31 L 33 31 L 33 74.339844 L 0.945312 74.339844 Z M 0.945312 31 " clip-rule="nonzero"/></clipPath><clipPath id="78795e8e8d"><path d="M 11 9.089844 L 73.695312 9.089844 L 73.695312 72 L 11 72 Z M 11 9.089844 " clip-rule="nonzero"/></clipPath></defs><path fill="#503047" d="M 45.199219 26.804688 C 36.652344 20.601562 27.199219 16.683594 17.113281 15.15625 L 17.507812 12.527344 C 28.023438 14.117188 37.863281 18.195312 46.757812 24.648438 L 45.199219 26.800781 Z M 45.199219 26.804688 " fill-opacity="1" fill-rule="nonzero"/><path fill="#503047" d="M 68.804688 57.777344 C 64.96875 47.378906 58.355469 37.90625 49.683594 30.386719 L 51.421875 28.375 C 60.433594 36.1875 67.308594 46.039062 71.300781 56.859375 Z M 68.804688 57.777344 " fill-opacity="1" fill-rule="nonzero"/><path fill="#503047" d="M 65.519531 64.621094 C 53.078125 63.316406 41.292969 57.757812 32.328125 48.964844 L 34.1875 47.066406 C 42.726562 55.441406 53.953125 60.738281 65.796875 61.976562 Z M 65.519531 64.621094 " fill-opacity="1" fill-rule="nonzero"/><path fill="#503047" d="M 18.925781 28.164062 C 17.242188 23.523438 16.21875 18.929688 15.808594 14.117188 L 18.457031 13.890625 C 18.851562 18.46875 19.820312 22.835938 21.425781 27.253906 Z M 18.925781 28.164062 " fill-opacity="1" fill-rule="nonzero"/><path fill="#503047" d="M 68.867188 59.800781 C 56.339844 54.820312 47.042969 48.304688 37.792969 38.015625 L 39.769531 36.238281 C 48.847656 46.335938 57.5625 52.449219 69.847656 57.332031 Z M 68.867188 59.800781 " fill-opacity="1" fill-rule="nonzero"/><path fill="#503047" d="M 35.183594 35.003906 C 34.589844 34.304688 34.074219 33.683594 33.480469 32.949219 L 35.546875 31.277344 C 36.128906 31.996094 36.632812 32.605469 37.210938 33.289062 Z M 35.183594 35.003906 " fill-opacity="1" fill-rule="nonzero"/><g clip-path="url(#5d4b5c9b44)"><path fill="#503047" d="M 16.902344 74.230469 C 8.105469 74.230469 0.949219 67.078125 0.949219 58.28125 C 0.949219 45.871094 15.394531 32.601562 16.007812 32.042969 L 16.902344 31.230469 L 17.796875 32.042969 C 18.410156 32.601562 32.851562 45.871094 32.851562 58.28125 C 32.851562 67.078125 25.695312 74.230469 16.902344 74.230469 Z M 16.902344 34.867188 C 13.785156 37.941406 3.609375 48.71875 3.609375 58.28125 C 3.609375 65.609375 9.574219 71.574219 16.902344 71.574219 C 24.230469 71.574219 30.191406 65.609375 30.191406 58.28125 C 30.191406 48.71875 20.015625 37.945312 16.902344 34.867188 Z M 16.902344 34.867188 " fill-opacity="1" fill-rule="nonzero"/></g><path fill="#503047" d="M 13.386719 66.894531 C 10.953125 65.902344 9.046875 63.914062 8.148438 61.445312 L 10.652344 60.539062 C 11.289062 62.304688 12.65625 63.722656 14.394531 64.4375 Z M 13.386719 66.894531 " fill-opacity="1" fill-rule="nonzero"/><g clip-path="url(#78795e8e8d)"><path fill="#503047" d="M 48.800781 71.574219 C 41.714844 71.574219 35.742188 68.945312 30 63.308594 L 31.863281 61.414062 C 37.148438 66.601562 42.371094 68.914062 48.800781 68.914062 C 61.261719 68.914062 71.398438 58.777344 71.398438 46.316406 C 71.398438 41.007812 69.511719 35.84375 66.089844 31.777344 C 65.894531 31.527344 50.480469 11.757812 26.203125 11.757812 C 19.609375 11.757812 14.242188 17.121094 14.242188 23.71875 C 14.242188 27.441406 14.765625 31.25 15.800781 35.039062 L 13.234375 35.742188 C 12.140625 31.722656 11.585938 27.679688 11.585938 23.71875 C 11.585938 15.65625 18.144531 9.097656 26.207031 9.097656 C 51.824219 9.097656 67.507812 29.257812 68.160156 30.113281 C 71.949219 34.609375 74.058594 40.382812 74.058594 46.316406 C 74.058594 60.242188 62.726562 71.570312 48.800781 71.570312 Z M 48.800781 71.574219 " fill-opacity="1" fill-rule="nonzero"/></g></svg>