<svg xmlns="http://www.w3.org/2000/svg" xmlns:xlink="http://www.w3.org/1999/xlink" width="100" zoomAndPan="magnify" viewBox="0 0 75 74.999997" height="100" preserveAspectRatio="xMidYMid meet" version="1.0"><defs><clipPath id="72c0fd6a42"><path d="M 0.863281 0.976562 L 74.363281 0.976562 L 74.363281 74.476562 L 0.863281 74.476562 Z M 0.863281 0.976562 " clip-rule="nonzero"/></clipPath></defs><g clip-path="url(#72c0fd6a42)"><path fill="#503047" d="M 37.496094 0.988281 C 17.273438 0.988281 0.878906 17.382812 0.878906 37.609375 C 0.878906 57.832031 17.273438 74.226562 37.496094 74.226562 C 57.71875 74.226562 74.113281 57.832031 74.113281 37.609375 C 74.113281 17.382812 57.71875 0.988281 37.496094 0.988281 Z M 37.496094 69.996094 C 19.605469 69.996094 5.105469 55.496094 5.105469 37.609375 C 5.105469 19.71875 19.605469 5.21875 37.496094 5.21875 C 55.382812 5.21875 69.886719 19.71875 69.886719 37.609375 C 69.886719 55.496094 55.382812 69.996094 37.496094 69.996094 Z M 37.496094 69.996094 " fill-opacity="1" fill-rule="nonzero"/></g><path fill="#503047" d="M 43.316406 37.609375 C 43.316406 37.988281 43.277344 38.367188 43.203125 38.742188 C 43.128906 39.117188 43.019531 39.480469 42.871094 39.835938 C 42.726562 40.1875 42.546875 40.523438 42.335938 40.839844 C 42.121094 41.160156 41.882812 41.453125 41.609375 41.722656 C 41.339844 41.992188 41.046875 42.234375 40.730469 42.445312 C 40.410156 42.660156 40.074219 42.839844 39.722656 42.984375 C 39.371094 43.132812 39.003906 43.242188 38.628906 43.316406 C 38.257812 43.390625 37.878906 43.429688 37.496094 43.429688 C 37.113281 43.429688 36.734375 43.390625 36.359375 43.316406 C 35.984375 43.242188 35.621094 43.132812 35.269531 42.984375 C 34.914062 42.839844 34.578125 42.660156 34.261719 42.445312 C 33.945312 42.234375 33.648438 41.992188 33.378906 41.722656 C 33.109375 41.453125 32.867188 41.160156 32.65625 40.839844 C 32.445312 40.523438 32.265625 40.1875 32.117188 39.835938 C 31.972656 39.480469 31.863281 39.117188 31.785156 38.742188 C 31.710938 38.367188 31.675781 37.988281 31.675781 37.609375 C 31.675781 37.226562 31.710938 36.847656 31.785156 36.472656 C 31.863281 36.097656 31.972656 35.734375 32.117188 35.378906 C 32.265625 35.027344 32.445312 34.691406 32.65625 34.375 C 32.867188 34.054688 33.109375 33.761719 33.378906 33.492188 C 33.648438 33.222656 33.945312 32.980469 34.261719 32.769531 C 34.578125 32.554688 34.914062 32.375 35.269531 32.230469 C 35.621094 32.085938 35.984375 31.972656 36.359375 31.898438 C 36.734375 31.824219 37.113281 31.789062 37.496094 31.789062 C 37.878906 31.789062 38.257812 31.824219 38.628906 31.898438 C 39.003906 31.972656 39.371094 32.085938 39.722656 32.230469 C 40.074219 32.375 40.410156 32.554688 40.730469 32.769531 C 41.046875 32.980469 41.339844 33.222656 41.609375 33.492188 C 41.882812 33.761719 42.121094 34.054688 42.335938 34.375 C 42.546875 34.691406 42.726562 35.027344 42.871094 35.378906 C 43.019531 35.734375 43.128906 36.097656 43.203125 36.472656 C 43.277344 36.847656 43.316406 37.226562 43.316406 37.609375 Z M 43.316406 37.609375 " fill-opacity="1" fill-rule="nonzero"/><path fill="#503047" d="M 23.535156 37.609375 C 23.535156 37.988281 23.496094 38.367188 23.421875 38.742188 C 23.347656 39.117188 23.238281 39.480469 23.089844 39.835938 C 22.945312 40.1875 22.765625 40.523438 22.554688 40.839844 C 22.339844 41.160156 22.097656 41.453125 21.828125 41.722656 C 21.558594 41.992188 21.265625 42.234375 20.945312 42.445312 C 20.628906 42.660156 20.292969 42.839844 19.941406 42.984375 C 19.585938 43.132812 19.222656 43.242188 18.847656 43.316406 C 18.472656 43.390625 18.097656 43.429688 17.714844 43.429688 C 17.332031 43.429688 16.953125 43.390625 16.578125 43.316406 C 16.203125 43.242188 15.839844 43.132812 15.484375 42.984375 C 15.132812 42.839844 14.796875 42.660156 14.480469 42.445312 C 14.164062 42.234375 13.867188 41.992188 13.597656 41.722656 C 13.328125 41.453125 13.085938 41.160156 12.875 40.839844 C 12.660156 40.523438 12.484375 40.1875 12.335938 39.835938 C 12.191406 39.480469 12.078125 39.117188 12.003906 38.742188 C 11.929688 38.367188 11.894531 37.988281 11.894531 37.609375 C 11.894531 37.226562 11.929688 36.847656 12.003906 36.472656 C 12.078125 36.097656 12.191406 35.734375 12.335938 35.378906 C 12.484375 35.027344 12.660156 34.691406 12.875 34.375 C 13.085938 34.054688 13.328125 33.761719 13.597656 33.492188 C 13.867188 33.222656 14.164062 32.980469 14.480469 32.769531 C 14.796875 32.554688 15.132812 32.375 15.484375 32.230469 C 15.839844 32.085938 16.203125 31.972656 16.578125 31.898438 C 16.953125 31.824219 17.332031 31.789062 17.714844 31.789062 C 18.097656 31.789062 18.472656 31.824219 18.847656 31.898438 C 19.222656 31.972656 19.585938 32.085938 19.941406 32.230469 C 20.292969 32.375 20.628906 32.554688 20.945312 32.769531 C 21.265625 32.980469 21.558594 33.222656 21.828125 33.492188 C 22.097656 33.761719 22.339844 34.054688 22.554688 34.375 C 22.765625 34.691406 22.945312 35.027344 23.089844 35.378906 C 23.238281 35.734375 23.347656 36.097656 23.421875 36.472656 C 23.496094 36.847656 23.535156 37.226562 23.535156 37.609375 Z M 23.535156 37.609375 " fill-opacity="1" fill-rule="nonzero"/><path fill="#503047" d="M 63.097656 37.609375 C 63.097656 37.988281 63.058594 38.367188 62.984375 38.742188 C 62.910156 39.117188 62.800781 39.480469 62.652344 39.835938 C 62.507812 40.1875 62.328125 40.523438 62.117188 40.839844 C 61.902344 41.160156 61.664062 41.453125 61.390625 41.722656 C 61.121094 41.992188 60.828125 42.234375 60.511719 42.445312 C 60.191406 42.660156 59.855469 42.839844 59.503906 42.984375 C 59.152344 43.132812 58.789062 43.242188 58.414062 43.316406 C 58.039062 43.390625 57.660156 43.429688 57.277344 43.429688 C 56.894531 43.429688 56.515625 43.390625 56.140625 43.316406 C 55.765625 43.242188 55.402344 43.132812 55.050781 42.984375 C 54.695312 42.839844 54.359375 42.660156 54.042969 42.445312 C 53.726562 42.234375 53.433594 41.992188 53.160156 41.722656 C 52.890625 41.453125 52.648438 41.160156 52.4375 40.839844 C 52.226562 40.523438 52.046875 40.1875 51.898438 39.835938 C 51.753906 39.480469 51.644531 39.117188 51.570312 38.742188 C 51.492188 38.367188 51.457031 37.988281 51.457031 37.609375 C 51.457031 37.226562 51.492188 36.847656 51.570312 36.472656 C 51.644531 36.097656 51.753906 35.734375 51.898438 35.378906 C 52.046875 35.027344 52.226562 34.691406 52.4375 34.375 C 52.648438 34.054688 52.890625 33.761719 53.160156 33.492188 C 53.433594 33.222656 53.726562 32.980469 54.042969 32.769531 C 54.359375 32.554688 54.695312 32.375 55.050781 32.230469 C 55.402344 32.085938 55.765625 31.972656 56.140625 31.898438 C 56.515625 31.824219 56.894531 31.789062 57.277344 31.789062 C 57.660156 31.789062 58.039062 31.824219 58.414062 31.898438 C 58.789062 31.972656 59.152344 32.085938 59.503906 32.230469 C 59.855469 32.375 60.191406 32.554688 60.511719 32.769531 C 60.828125 32.980469 61.121094 33.222656 61.390625 33.492188 C 61.664062 33.761719 61.902344 34.054688 62.117188 34.375 C 62.328125 34.691406 62.507812 35.027344 62.652344 35.378906 C 62.800781 35.734375 62.910156 36.097656 62.984375 36.472656 C 63.058594 36.847656 63.097656 37.226562 63.097656 37.609375 Z M 63.097656 37.609375 " fill-opacity="1" fill-rule="nonzero"/></svg>