<svg xmlns="http://www.w3.org/2000/svg" xmlns:xlink="http://www.w3.org/1999/xlink" width="100" zoomAndPan="magnify" viewBox="0 0 75 74.999997" height="100" preserveAspectRatio="xMidYMid meet" version="1.0"><defs><clipPath id="e7fcfad718"><path d="M 1.261719 1.261719 L 74 1.261719 L 74 74 L 1.261719 74 Z M 1.261719 1.261719 " clip-rule="nonzero"/></clipPath></defs><g clip-path="url(#e7fcfad718)"><path fill="#503047" d="M 71.394531 44.570312 C 71.394531 48.167969 69.9375 51.640625 67.40625 54.222656 L 65.082031 53.863281 C 66.152344 51.625 66.71875 49.164062 66.71875 46.65625 L 66.71875 42.363281 C 66.71875 38.207031 65.132812 34.222656 62.417969 31.195312 C 62.886719 30.753906 63.515625 30.484375 64.1875 30.484375 C 64.746094 30.484375 65.296875 30.664062 65.742188 30.988281 C 69.277344 33.605469 71.394531 37.761719 71.394531 42.113281 Z M 71.394531 60.875 C 71.394531 63 69.867188 64.78125 67.761719 65.105469 L 27.683594 71.269531 C 27.15625 71.351562 26.617188 71.394531 26.082031 71.394531 L 25.808594 71.394531 C 20.007812 71.394531 15.289062 66.671875 15.289062 60.875 C 15.289062 55.074219 20.007812 50.355469 25.808594 50.355469 L 26.082031 50.355469 C 26.617188 50.355469 27.15625 50.394531 27.683594 50.476562 L 67.761719 56.640625 C 69.867188 56.964844 71.394531 58.746094 71.394531 60.875 Z M 8.246094 66.695312 C 7.691406 66.8125 7.105469 66.367188 7.105469 65.78125 L 7.105469 65.316406 C 7.105469 64.800781 7.527344 64.378906 8.042969 64.378906 L 13.449219 64.378906 C 13.554688 64.746094 13.675781 65.105469 13.808594 65.457031 Z M 3.601562 60.875 C 3.601562 60.230469 4.125 59.703125 4.769531 59.703125 L 13.011719 59.703125 C 12.972656 60.09375 12.949219 60.480469 12.949219 60.875 C 12.949219 61.265625 12.972656 61.652344 13.011719 62.042969 L 4.769531 62.042969 C 4.125 62.042969 3.601562 61.515625 3.601562 60.875 Z M 7.105469 56.429688 L 7.105469 55.964844 C 7.105469 55.378906 7.671875 54.929688 8.246094 55.050781 L 13.808594 56.289062 C 13.675781 56.640625 13.554688 57 13.449219 57.367188 L 8.042969 57.367188 C 7.527344 57.367188 7.105469 56.945312 7.105469 56.429688 Z M 17.277344 41.003906 L 16.457031 41.003906 C 13.878906 41.003906 11.78125 38.90625 11.78125 36.328125 C 11.78125 35.78125 11.890625 35.222656 12.101562 34.664062 L 12.449219 33.769531 L 11.636719 33.257812 C 10.261719 32.390625 9.445312 30.917969 9.445312 29.316406 C 9.445312 28.398438 9.714844 27.5 10.226562 26.734375 L 10.957031 25.640625 L 9.78125 25.046875 C 7.414062 23.839844 5.9375 21.441406 5.9375 18.792969 C 5.9375 15.683594 8.027344 12.914062 11.019531 12.054688 L 11.746094 11.851562 L 11.855469 11.101562 C 12.1875 8.824219 14.164062 7.105469 16.457031 7.105469 C 16.503906 7.105469 16.542969 7.117188 16.589844 7.121094 C 16.667969 7.132812 16.746094 7.144531 16.828125 7.148438 L 17.667969 7.21875 L 18 6.445312 C 18.734375 4.71875 20.425781 3.601562 22.300781 3.601562 C 24.566406 3.601562 26.496094 5.21875 26.890625 7.457031 L 27.105469 8.660156 L 28.296875 8.394531 C 28.660156 8.316406 28.992188 8.273438 29.316406 8.273438 C 29.851562 8.273438 30.363281 8.394531 30.851562 8.5625 C 29.132812 9.066406 27.652344 10.207031 26.742188 11.785156 C 23.648438 11.890625 20.976562 14.074219 20.210938 17.050781 C 16.589844 18.398438 14.121094 21.902344 14.121094 25.808594 C 14.121094 28.941406 15.664062 31.804688 18.210938 33.535156 C 17.828125 34.410156 17.625 35.359375 17.625 36.328125 C 17.625 38.433594 18.5625 40.386719 20.164062 41.710938 C 20.03125 42.253906 19.964844 42.796875 19.964844 43.339844 C 19.964844 45.394531 20.847656 47.238281 22.246094 48.527344 C 21.550781 48.726562 20.886719 48.992188 20.242188 49.300781 Z M 37.410156 14.472656 L 37.625 15.671875 L 38.816406 15.40625 C 39.179688 15.328125 39.511719 15.289062 39.835938 15.289062 C 42.414062 15.289062 44.507812 17.382812 44.507812 19.964844 C 44.507812 21.191406 44.035156 22.355469 43.167969 23.238281 L 42.363281 24.054688 L 43.167969 24.871094 C 44.035156 25.757812 44.507812 26.917969 44.507812 28.144531 C 44.507812 28.183594 44.5 28.214844 44.5 28.25 C 44.183594 28.1875 43.859375 28.144531 43.53125 28.144531 C 42.476562 28.144531 41.433594 28.488281 40.59375 29.113281 C 38.464844 30.679688 36.789062 32.734375 35.652344 35.050781 C 35.210938 33.671875 34.742188 32.347656 34.265625 31.09375 C 35.347656 25.382812 39.359375 22.078125 39.394531 22.046875 L 37.933594 20.21875 C 37.773438 20.351562 34.609375 22.929688 32.835938 27.589844 C 30.402344 22.003906 28.109375 18.394531 27.957031 18.164062 L 25.996094 19.425781 C 26.023438 19.476562 27.808594 22.277344 29.878906 26.742188 C 26.382812 25.425781 22.410156 25.789062 22.1875 25.8125 L 22.414062 28.140625 C 24.171875 27.964844 29.15625 28.050781 31.480469 30.425781 C 32.300781 32.4375 33.109375 34.644531 33.820312 37.011719 C 30.269531 35.1875 26.027344 35.160156 25.808594 35.160156 L 25.808594 37.496094 C 25.863281 37.496094 31.066406 37.53125 34.144531 39.980469 C 34.050781 40.683594 33.988281 41.394531 33.988281 42.113281 L 33.988281 44.570312 C 33.988281 46.148438 34.230469 47.691406 34.683594 49.191406 L 28.035156 48.167969 C 27.683594 48.113281 27.332031 48.074219 26.976562 48.050781 C 24.398438 48.050781 22.300781 45.9375 22.300781 43.339844 C 22.300781 42.796875 22.410156 42.234375 22.625 41.679688 L 22.964844 40.785156 L 22.15625 40.273438 C 20.785156 39.40625 19.964844 37.929688 19.964844 36.328125 C 19.964844 35.410156 20.234375 34.515625 20.746094 33.746094 L 21.46875 32.652344 L 20.300781 32.058594 C 17.933594 30.851562 16.457031 28.457031 16.457031 25.808594 C 16.457031 22.699219 18.546875 19.925781 21.539062 19.070312 L 22.265625 18.863281 L 22.375 18.113281 C 22.707031 15.835938 24.683594 14.121094 26.976562 14.121094 C 27.019531 14.121094 27.0625 14.128906 27.105469 14.132812 C 27.1875 14.148438 27.269531 14.15625 27.351562 14.160156 L 28.191406 14.230469 L 28.519531 13.457031 C 29.253906 11.730469 30.945312 10.613281 32.820312 10.613281 C 35.085938 10.613281 37.015625 12.234375 37.410156 14.472656 Z M 37.300781 49.589844 C 36.664062 47.984375 36.328125 46.304688 36.328125 44.570312 L 36.328125 42.113281 C 36.328125 37.761719 38.441406 33.605469 41.980469 30.988281 C 42.421875 30.664062 42.976562 30.484375 43.53125 30.484375 C 44.234375 30.484375 44.886719 30.765625 45.363281 31.246094 C 42.605469 34.265625 41.003906 38.230469 41.003906 42.363281 L 41.003906 46.65625 C 41.003906 47.859375 41.148438 49.050781 41.40625 50.222656 Z M 49.933594 30.578125 L 50.101562 32.433594 C 48.777344 33.078125 48.015625 34.054688 48.015625 35.160156 C 48.015625 36.445312 49.066406 37.523438 50.699219 38.132812 C 50.492188 39.457031 50.355469 40.796875 50.355469 42.136719 L 50.355469 46.882812 C 50.355469 48.492188 50.507812 50.09375 50.804688 51.667969 L 43.917969 50.609375 C 43.542969 49.320312 43.339844 47.996094 43.339844 46.65625 L 43.339844 42.363281 C 43.339844 37.917969 45.476562 33.671875 49.058594 31.003906 C 49.316406 30.808594 49.617188 30.664062 49.933594 30.578125 Z M 53.710938 19.964844 L 54.011719 19.964844 C 55.214844 19.964844 56.199219 20.945312 56.199219 22.152344 C 56.199219 22.214844 56.195312 22.28125 56.1875 22.347656 L 55.128906 34.023438 L 56.019531 34.304688 C 57.042969 34.632812 57.367188 35.066406 57.367188 35.160156 C 57.367188 35.449219 56.125 36.328125 53.859375 36.328125 C 51.597656 36.328125 50.355469 35.449219 50.355469 35.160156 C 50.355469 35.066406 50.679688 34.632812 51.699219 34.304688 L 52.589844 34.023438 L 51.53125 22.347656 C 51.527344 22.28125 51.523438 22.214844 51.523438 22.152344 C 51.523438 20.945312 52.503906 19.964844 53.710938 19.964844 Z M 58.808594 30.996094 C 62.296875 33.660156 64.378906 37.910156 64.378906 42.363281 L 64.378906 46.65625 C 64.378906 49.050781 63.78125 51.398438 62.660156 53.492188 L 53.285156 52.046875 C 52.898438 50.355469 52.691406 48.625 52.691406 46.882812 L 52.691406 42.136719 C 52.691406 40.957031 52.808594 39.785156 52.988281 38.613281 C 53.277344 38.636719 53.558594 38.664062 53.859375 38.664062 C 57.195312 38.664062 59.703125 37.160156 59.703125 35.160156 C 59.703125 34.054688 58.941406 33.078125 57.617188 32.433594 L 57.792969 30.542969 C 58.15625 30.617188 58.503906 30.761719 58.808594 30.996094 Z M 73.730469 42.113281 C 73.730469 37.023438 71.265625 32.164062 67.128906 29.113281 C 66.289062 28.488281 65.242188 28.144531 64.1875 28.144531 C 62.867188 28.144531 61.636719 28.671875 60.726562 29.570312 C 60.558594 29.429688 60.402344 29.273438 60.230469 29.136719 C 59.582031 28.644531 58.800781 28.347656 58 28.226562 L 58.515625 22.558594 C 58.53125 22.421875 58.535156 22.289062 58.535156 22.152344 C 58.535156 19.652344 56.507812 17.625 54.011719 17.625 L 53.710938 17.625 C 51.210938 17.625 49.183594 19.652344 49.183594 22.152344 C 49.183594 22.289062 49.191406 22.421875 49.203125 22.558594 L 49.71875 28.25 C 48.980469 28.390625 48.261719 28.679688 47.660156 29.128906 C 47.449219 29.28125 47.261719 29.464844 47.0625 29.628906 C 46.957031 29.523438 46.847656 29.425781 46.734375 29.324219 C 46.800781 28.9375 46.847656 28.542969 46.847656 28.144531 C 46.847656 26.660156 46.386719 25.242188 45.527344 24.054688 C 46.386719 22.867188 46.847656 21.449219 46.847656 19.964844 C 46.847656 15.960938 43.460938 12.71875 39.429688 12.964844 C 38.675781 10.8125 36.925781 9.191406 34.773438 8.566406 C 33.351562 6.792969 31.203125 5.804688 28.90625 5.953125 C 27.941406 3.175781 25.320312 1.261719 22.300781 1.261719 C 19.773438 1.261719 17.464844 2.613281 16.222656 4.773438 C 13.128906 4.878906 10.457031 7.0625 9.691406 10.039062 C 6.070312 11.382812 3.601562 14.890625 3.601562 18.792969 C 3.601562 21.925781 5.144531 24.789062 7.691406 26.519531 C 7.308594 27.398438 7.105469 28.347656 7.105469 29.316406 C 7.105469 31.417969 8.042969 33.375 9.644531 34.699219 C 9.511719 35.242188 9.445312 35.785156 9.445312 36.328125 C 9.445312 39.910156 12.140625 42.875 15.617188 43.289062 L 18.203125 50.53125 C 16.878906 51.507812 15.75 52.726562 14.882812 54.128906 L 8.757812 52.769531 C 8.527344 52.71875 8.285156 52.691406 8.042969 52.691406 C 6.238281 52.691406 4.769531 54.160156 4.769531 55.964844 L 4.769531 56.429688 C 4.769531 56.753906 4.832031 57.066406 4.925781 57.367188 L 4.769531 57.367188 C 2.832031 57.367188 1.261719 58.9375 1.261719 60.875 C 1.261719 62.808594 2.832031 64.378906 4.769531 64.378906 L 4.925781 64.378906 C 4.832031 64.679688 4.769531 64.988281 4.769531 65.316406 L 4.769531 65.78125 C 4.769531 67.585938 6.238281 69.054688 8.042969 69.054688 C 8.285156 69.054688 8.527344 69.027344 8.753906 68.976562 L 14.882812 67.617188 C 17.152344 71.277344 21.191406 73.730469 25.808594 73.730469 L 26.082031 73.730469 C 26.734375 73.730469 27.390625 73.679688 28.035156 73.582031 L 68.121094 67.417969 C 71.371094 66.914062 73.730469 64.164062 73.730469 60.875 C 73.730469 58.242188 72.210938 55.980469 69.941406 54.910156 C 72.359375 52.015625 73.730469 48.347656 73.730469 44.570312 L 73.730469 42.113281 " fill-opacity="1" fill-rule="nonzero"/></g><path fill="#503047" d="M 24.640625 66.71875 L 26.976562 66.71875 L 26.976562 55.027344 L 24.640625 55.027344 L 24.640625 66.71875 " fill-opacity="1" fill-rule="nonzero"/><path fill="#503047" d="M 33.988281 66.71875 L 36.328125 66.71875 L 36.328125 55.027344 L 33.988281 55.027344 L 33.988281 66.71875 " fill-opacity="1" fill-rule="nonzero"/><path fill="#503047" d="M 43.339844 66.71875 L 45.679688 66.71875 L 45.679688 55.027344 L 43.339844 55.027344 L 43.339844 66.71875 " fill-opacity="1" fill-rule="nonzero"/><path fill="#503047" d="M 52.691406 64.378906 L 55.027344 64.378906 L 55.027344 57.367188 L 52.691406 57.367188 L 52.691406 64.378906 " fill-opacity="1" fill-rule="nonzero"/><path fill="#503047" d="M 62.042969 63.210938 L 64.378906 63.210938 L 64.378906 58.535156 L 62.042969 58.535156 L 62.042969 63.210938 " fill-opacity="1" fill-rule="nonzero"/></svg>