<svg xmlns="http://www.w3.org/2000/svg" xmlns:xlink="http://www.w3.org/1999/xlink" width="40" zoomAndPan="magnify" viewBox="0 0 30 30.000001" height="40" preserveAspectRatio="xMidYMid meet" version="1.0"><defs><clipPath id="812940cb26"><path d="M 0.484375 0 L 29.515625 0 L 29.515625 29.03125 L 0.484375 29.03125 Z M 0.484375 0 " clip-rule="nonzero"/></clipPath></defs><g clip-path="url(#812940cb26)"><path fill="#edede9" d="M 28.753906 17.242188 L 23.984375 17.242188 L 23.984375 16.109375 C 24.875 16.074219 26.304688 15.855469 27.28125 14.875 C 28.753906 13.402344 28.507812 10.886719 28.496094 10.777344 C 28.460938 10.433594 28.183594 10.160156 27.839844 10.125 C 27.835938 10.125 27.820312 10.125 27.8125 10.121094 C 28.6875 8.660156 28.503906 6.808594 28.496094 6.714844 C 28.460938 6.371094 28.183594 6.097656 27.839844 6.0625 C 27.757812 6.050781 26.175781 5.898438 24.785156 6.558594 C 25.273438 5.890625 25.742188 4.984375 25.742188 3.964844 C 25.742188 1.875 23.789062 0.273438 23.703125 0.207031 C 23.433594 -0.0117188 23.046875 -0.0117188 22.777344 0.207031 C 22.691406 0.273438 20.738281 1.875 20.738281 3.964844 C 20.738281 4.164062 20.761719 4.363281 20.792969 4.550781 C 19.695312 4.273438 18.707031 4.367188 18.640625 4.375 C 18.296875 4.410156 18.019531 4.6875 17.988281 5.03125 C 17.976562 5.125 17.796875 6.976562 18.667969 8.433594 C 18.660156 8.433594 18.644531 8.433594 18.640625 8.441406 C 18.296875 8.472656 18.019531 8.75 17.988281 9.09375 C 17.976562 9.199219 17.726562 11.714844 19.199219 13.191406 C 20.183594 14.171875 21.613281 14.386719 22.5 14.421875 L 22.5 17.238281 L 9.398438 17.238281 C 11.148438 15.21875 14.234375 11.292969 14.234375 8.730469 C 14.234375 5.148438 11.320312 2.238281 7.746094 2.238281 C 4.167969 2.238281 1.253906 5.152344 1.253906 8.734375 C 1.253906 11.296875 4.339844 15.222656 6.089844 17.242188 L 1.246094 17.242188 C 0.835938 17.242188 0.507812 17.570312 0.507812 17.980469 C 0.507812 18.386719 0.835938 18.714844 1.246094 18.714844 L 23.242188 18.714844 C 22.320312 19.246094 21.484375 19.914062 20.753906 20.679688 L 1.246094 20.679688 C 0.835938 20.679688 0.507812 21.011719 0.507812 21.417969 C 0.507812 21.824219 0.835938 22.15625 1.246094 22.15625 L 19.574219 22.15625 C 19.160156 22.769531 18.808594 23.425781 18.523438 24.121094 L 1.246094 24.121094 C 0.835938 24.121094 0.507812 24.449219 0.507812 24.855469 C 0.507812 25.265625 0.835938 25.59375 1.246094 25.59375 L 18.039062 25.59375 C 17.878906 26.226562 17.769531 26.886719 17.726562 27.558594 L 1.246094 27.558594 C 0.835938 27.558594 0.507812 27.886719 0.507812 28.296875 C 0.507812 28.703125 0.835938 29.03125 1.246094 29.03125 L 18.4375 29.03125 C 18.847656 29.03125 19.175781 28.703125 19.175781 28.296875 C 19.175781 23.015625 23.472656 18.714844 28.753906 18.714844 C 29.164062 18.714844 29.492188 18.386719 29.492188 17.980469 C 29.492188 17.570312 29.164062 17.242188 28.753906 17.242188 Z M 26.238281 13.839844 C 25.625 14.453125 24.636719 14.609375 23.988281 14.640625 C 24.019531 13.992188 24.175781 13 24.789062 12.382812 C 25.40625 11.769531 26.390625 11.613281 27.039062 11.582031 C 27.007812 12.230469 26.855469 13.222656 26.238281 13.839844 Z M 26.238281 9.777344 C 25.625 10.390625 24.636719 10.546875 23.988281 10.578125 C 24.019531 9.929688 24.175781 8.9375 24.789062 8.320312 C 25.40625 7.707031 26.390625 7.550781 27.039062 7.519531 C 27.007812 8.175781 26.855469 9.160156 26.238281 9.777344 Z M 23.242188 1.8125 C 23.679688 2.292969 24.269531 3.101562 24.269531 3.96875 C 24.269531 4.839844 23.679688 5.648438 23.242188 6.125 C 22.804688 5.644531 22.214844 4.839844 22.214844 3.96875 C 22.214844 3.101562 22.804688 2.289062 23.242188 1.8125 Z M 21.699219 6.640625 C 22.316406 7.253906 22.472656 8.242188 22.5 8.890625 C 21.851562 8.863281 20.859375 8.703125 20.246094 8.089844 C 19.632812 7.476562 19.476562 6.488281 19.445312 5.839844 C 20.097656 5.875 21.089844 6.027344 21.699219 6.640625 Z M 20.25 12.15625 C 19.636719 11.542969 19.480469 10.558594 19.449219 9.910156 C 20.097656 9.9375 21.089844 10.09375 21.707031 10.710938 C 22.320312 11.324219 22.476562 12.308594 22.507812 12.957031 C 21.851562 12.925781 20.859375 12.765625 20.25 12.15625 Z M 7.746094 3.714844 C 10.511719 3.714844 12.761719 5.964844 12.761719 8.730469 C 12.761719 10.855469 9.519531 14.910156 7.746094 16.890625 C 5.972656 14.914062 2.730469 10.859375 2.730469 8.734375 C 2.730469 5.96875 4.980469 3.714844 7.746094 3.714844 Z M 7.746094 3.714844 " fill-opacity="1" fill-rule="nonzero"/></g><path fill="#edede9" d="M 10.703125 8.734375 C 10.703125 7.101562 9.375 5.78125 7.75 5.78125 C 6.117188 5.78125 4.796875 7.109375 4.796875 8.734375 C 4.796875 10.359375 6.125 11.6875 7.75 11.6875 C 9.375 11.6875 10.703125 10.363281 10.703125 8.734375 Z M 6.265625 8.734375 C 6.265625 7.917969 6.929688 7.253906 7.746094 7.253906 C 8.558594 7.253906 9.222656 7.917969 9.222656 8.734375 C 9.222656 9.550781 8.558594 10.210938 7.746094 10.210938 C 6.929688 10.210938 6.265625 9.550781 6.265625 8.734375 Z M 6.265625 8.734375 " fill-opacity="1" fill-rule="nonzero"/></svg>