<svg xmlns="http://www.w3.org/2000/svg" xmlns:xlink="http://www.w3.org/1999/xlink" width="50" zoomAndPan="magnify" viewBox="0 0 37.5 58.499999" height="78" preserveAspectRatio="xMidYMid meet" version="1.0"><defs><clipPath id="87256823e8"><path d="M 0 1.605469 L 36.949219 1.605469 L 36.949219 57.855469 L 0 57.855469 Z M 0 1.605469 " clip-rule="nonzero"/></clipPath><clipPath id="c3d3cf3571"><path d="M 7.785156 10.5625 L 30.730469 10.5625 L 30.730469 33.503906 L 7.785156 33.503906 Z M 7.785156 10.5625 " clip-rule="nonzero"/></clipPath></defs><g clip-path="url(#87256823e8)"><path fill="#503047" d="M 36.914062 20.046875 C 36.914062 9.898438 28.679688 1.605469 18.46875 1.605469 C 8.257812 1.605469 0.0234375 9.898438 0.0234375 20.046875 C 0.0234375 23.144531 0.828125 26.113281 2.191406 28.714844 L 13.332031 49.695312 L 16.613281 55.886719 C 17.664062 57.867188 19.398438 57.867188 20.449219 55.886719 L 22.554688 51.863281 L 34.808594 28.714844 C 36.171875 26.113281 36.914062 23.203125 36.914062 20.046875 Z M 36.914062 20.046875 " fill-opacity="1" fill-rule="nonzero"/></g><g clip-path="url(#c3d3cf3571)"><path fill="#edede9" d="M 29.824219 24.003906 L 26.105469 24.003906 L 26.105469 23.117188 C 26.800781 23.089844 27.914062 22.921875 28.675781 22.15625 C 29.824219 21.007812 29.632812 19.046875 29.621094 18.964844 C 29.59375 18.695312 29.378906 18.480469 29.113281 18.453125 C 29.109375 18.453125 29.097656 18.453125 29.089844 18.449219 C 29.769531 17.3125 29.628906 15.871094 29.621094 15.796875 C 29.59375 15.527344 29.378906 15.3125 29.113281 15.289062 C 29.046875 15.28125 27.8125 15.160156 26.730469 15.675781 C 27.109375 15.152344 27.476562 14.449219 27.476562 13.652344 C 27.476562 12.023438 25.953125 10.777344 25.886719 10.722656 C 25.675781 10.554688 25.375 10.554688 25.164062 10.722656 C 25.097656 10.777344 23.574219 12.023438 23.574219 13.652344 C 23.574219 13.808594 23.59375 13.960938 23.617188 14.109375 C 22.761719 13.894531 21.992188 13.964844 21.941406 13.972656 C 21.671875 14 21.457031 14.214844 21.429688 14.484375 C 21.421875 14.554688 21.28125 16 21.964844 17.136719 C 21.957031 17.136719 21.945312 17.136719 21.941406 17.140625 C 21.671875 17.167969 21.457031 17.382812 21.429688 17.648438 C 21.421875 17.734375 21.226562 19.695312 22.375 20.84375 C 23.140625 21.609375 24.257812 21.777344 24.949219 21.804688 L 24.949219 24 L 14.738281 24 C 16.101562 22.425781 18.503906 19.367188 18.503906 17.367188 C 18.503906 14.574219 16.234375 12.308594 13.445312 12.308594 C 10.660156 12.308594 8.386719 14.578125 8.386719 17.371094 C 8.386719 19.371094 10.792969 22.429688 12.15625 24.003906 L 8.378906 24.003906 C 8.0625 24.003906 7.804688 24.257812 7.804688 24.578125 C 7.804688 24.894531 8.0625 25.152344 8.378906 25.152344 L 25.527344 25.152344 C 24.808594 25.566406 24.15625 26.085938 23.585938 26.683594 L 8.378906 26.683594 C 8.0625 26.683594 7.804688 26.941406 7.804688 27.257812 C 7.804688 27.574219 8.0625 27.832031 8.378906 27.832031 L 22.667969 27.832031 C 22.347656 28.3125 22.070312 28.824219 21.847656 29.363281 L 8.378906 29.363281 C 8.0625 29.363281 7.804688 29.621094 7.804688 29.9375 C 7.804688 30.257812 8.0625 30.511719 8.378906 30.511719 L 21.472656 30.511719 C 21.347656 31.007812 21.261719 31.519531 21.226562 32.042969 L 8.378906 32.042969 C 8.0625 32.042969 7.804688 32.300781 7.804688 32.617188 C 7.804688 32.9375 8.0625 33.195312 8.378906 33.195312 L 21.78125 33.195312 C 22.101562 33.195312 22.359375 32.9375 22.359375 32.617188 C 22.359375 28.503906 25.707031 25.152344 29.824219 25.152344 C 30.144531 25.152344 30.398438 24.894531 30.398438 24.578125 C 30.398438 24.257812 30.144531 24.003906 29.824219 24.003906 Z M 27.863281 21.347656 C 27.386719 21.828125 26.617188 21.949219 26.109375 21.972656 C 26.132812 21.46875 26.257812 20.695312 26.734375 20.214844 C 27.214844 19.738281 27.984375 19.613281 28.488281 19.589844 C 28.460938 20.097656 28.34375 20.871094 27.863281 21.347656 Z M 27.863281 18.183594 C 27.386719 18.660156 26.617188 18.785156 26.109375 18.804688 C 26.132812 18.300781 26.257812 17.527344 26.734375 17.046875 C 27.214844 16.570312 27.984375 16.449219 28.488281 16.425781 C 28.460938 16.933594 28.34375 17.703125 27.863281 18.183594 Z M 25.527344 11.976562 C 25.867188 12.351562 26.328125 12.976562 26.328125 13.65625 C 26.328125 14.332031 25.867188 14.964844 25.527344 15.335938 C 25.1875 14.960938 24.726562 14.332031 24.726562 13.65625 C 24.726562 12.976562 25.1875 12.347656 25.527344 11.976562 Z M 24.324219 15.738281 C 24.804688 16.21875 24.925781 16.988281 24.949219 17.492188 C 24.445312 17.46875 23.671875 17.347656 23.191406 16.867188 C 22.714844 16.390625 22.589844 15.621094 22.566406 15.113281 C 23.078125 15.140625 23.851562 15.261719 24.324219 15.738281 Z M 23.195312 20.039062 C 22.71875 19.5625 22.59375 18.792969 22.570312 18.285156 C 23.078125 18.308594 23.851562 18.429688 24.328125 18.910156 C 24.808594 19.386719 24.929688 20.15625 24.953125 20.664062 C 24.445312 20.636719 23.671875 20.515625 23.195312 20.039062 Z M 13.445312 13.457031 C 15.601562 13.457031 17.355469 15.210938 17.355469 17.367188 C 17.355469 19.023438 14.828125 22.183594 13.445312 23.726562 C 12.0625 22.1875 9.535156 19.027344 9.535156 17.371094 C 9.535156 15.214844 11.289062 13.457031 13.445312 13.457031 Z M 13.445312 13.457031 " fill-opacity="1" fill-rule="nonzero"/></g><path fill="#edede9" d="M 15.75 17.371094 C 15.75 16.097656 14.71875 15.070312 13.449219 15.070312 C 12.179688 15.070312 11.148438 16.101562 11.148438 17.371094 C 11.148438 18.636719 12.183594 19.671875 13.449219 19.671875 C 14.71875 19.671875 15.75 18.640625 15.75 17.371094 Z M 12.292969 17.371094 C 12.292969 16.734375 12.8125 16.21875 13.445312 16.21875 C 14.082031 16.21875 14.597656 16.734375 14.597656 17.371094 C 14.597656 18.007812 14.082031 18.523438 13.445312 18.523438 C 12.8125 18.523438 12.292969 18.007812 12.292969 17.371094 Z M 12.292969 17.371094 " fill-opacity="1" fill-rule="nonzero"/></svg>